{"glyphs":{"0":{"ha":744,"x_min":0,"x_max":0,"o":"m 415 0 b 161 239 253 0 161 57 b 263 583 161 321 188 431 b 729 972 379 824 490 972 b 968 758 889 972 968 906 b 867 375 968 644 943 532 b 415 0 751 135 625 0 z m 147 239 b 415 -14 147 49 249 -14 b 879 369 631 -14 763 126 b 982 758 956 528 982 643 b 729 986 982 913 894 986 b 250 589 483 986 367 831 b 147 239 175 435 147 322 z m 351 642 b 358 675 338 642 353 665 b 715 929 439 818 535 929 b 746 910 733 929 746 925 b 636 861 746 896 731 885 b 383 671 515 831 464 779 b 351 642 372 656 361 642 z m 426 251 b 457 218 426 231 439 218 b 618 463 483 218 518 242 b 703 717 693 626 703 686 b 672 750 703 738 692 750 b 511 506 646 750 611 726 b 426 251 436 342 426 282 z m 440 251 b 524 500 440 281 450 338 b 672 736 621 714 654 736 b 689 717 682 736 689 732 b 606 468 689 688 679 631 b 457 232 508 254 475 232 b 440 251 449 232 440 236 z m 450 157 b 488 181 449 165 465 171 b 540 218 521 197 532 218 b 547 207 546 218 547 214 b 475 143 547 174 525 143 b 450 157 463 143 450 149 z "},"1":{"ha":389,"x_min":0,"x_max":0,"o":"m 53 14 l 371 714 l 322 760 l 586 958 l 751 958 l 322 14 z m 31 0 l 331 0 l 774 972 l 582 972 l 300 761 l 354 711 z m 397 644 b 401 682 386 644 392 661 b 401 743 419 721 419 728 b 404 771 390 753 392 761 l 554 882 b 642 918 583 904 607 918 b 686 900 671 919 686 910 b 633 875 686 885 668 882 b 540 829 597 868 579 858 b 397 644 458 767 419 644 z "},"2":{"ha":692,"x_min":0,"x_max":0,"o":"m 31 14 b 110 218 47 63 81 153 b 404 499 164 340 231 449 b 633 579 486 521 579 528 b 689 708 665 611 689 682 b 650 750 689 735 674 750 b 542 592 606 750 575 696 l 286 592 b 706 972 365 868 507 972 b 944 767 849 972 950 917 b 568 343 936 574 814 415 b 378 258 442 306 401 304 l 772 258 l 663 14 z m 11 0 l 671 0 l 794 272 l 406 272 b 572 329 429 293 472 300 b 958 767 822 403 950 568 b 706 986 964 925 853 986 b 268 578 499 986 347 872 l 551 578 b 650 736 585 685 614 736 b 675 708 668 736 675 725 b 624 589 675 685 653 618 b 400 513 574 542 483 535 b 97 224 222 461 151 347 b 11 0 64 149 24 40 z m 358 642 b 358 675 344 642 354 665 b 714 931 422 824 503 931 b 744 911 732 931 744 926 b 629 868 744 897 724 886 b 383 671 497 843 449 785 b 358 642 374 654 368 642 z m 376 208 b 535 217 381 214 439 217 b 707 208 622 217 710 214 b 483 179 696 183 581 179 b 376 208 400 179 374 188 z m 590 499 b 624 519 589 506 604 511 b 669 553 653 535 663 553 b 676 543 675 553 676 549 b 613 486 676 514 657 486 b 590 499 601 486 590 492 z "},"3":{"ha":624,"x_min":0,"x_max":0,"o":"m 278 0 b 39 49 189 0 108 21 l 150 289 b 342 257 211 267 263 257 b 483 333 428 257 482 281 b 361 390 485 386 429 390 l 207 389 l 297 586 l 378 586 b 599 667 521 586 594 610 b 526 713 601 690 581 713 b 326 689 458 713 390 703 l 438 936 b 658 972 481 951 576 972 b 908 803 843 972 908 915 b 650 500 908 663 799 568 b 731 353 713 456 731 417 b 278 0 731 136 575 0 z m 19 42 b 278 -14 93 11 182 -14 b 744 353 581 -14 744 129 b 676 497 744 413 728 456 b 922 803 817 565 922 663 b 658 986 922 922 849 986 b 428 947 571 986 468 963 l 301 668 b 526 699 372 686 450 699 b 585 668 572 699 586 683 b 378 600 582 622 518 600 l 289 600 l 185 375 l 361 376 b 469 333 428 376 471 372 b 342 271 468 292 422 271 b 143 307 258 271 208 282 z m 414 779 l 464 892 b 622 929 474 913 583 929 b 656 918 644 929 656 928 b 583 889 656 908 622 899 b 442 783 500 868 471 829 b 414 779 411 736 390 726 z m 458 226 b 469 242 458 232 461 236 b 510 269 494 257 504 269 b 515 261 514 269 515 267 b 478 217 515 232 501 217 b 458 226 468 217 458 219 z m 550 557 b 583 578 549 564 564 569 b 629 611 613 593 622 611 b 636 601 635 611 636 607 b 572 544 636 572 617 544 b 550 557 561 544 550 550 z m 672 917 b 726 929 672 921 708 929 b 747 917 742 928 747 924 b 717 899 747 904 736 897 b 672 917 701 899 671 913 z "},"4":{"ha":700,"x_min":0,"x_max":0,"o":"m 372 14 l 482 254 l 119 254 l 469 958 l 738 958 l 456 450 l 571 451 l 801 958 l 1071 958 l 642 14 z m 97 240 l 460 240 l 350 0 l 650 0 l 1093 972 l 793 972 l 563 465 l 479 464 l 761 972 l 461 972 z m 360 643 l 483 886 b 594 917 493 910 511 917 b 664 913 618 917 644 915 b 596 881 656 896 642 892 b 403 676 526 864 517 854 b 360 643 390 658 376 643 z m 547 389 b 585 413 546 397 563 403 b 638 450 618 429 629 450 b 644 439 643 450 644 446 b 572 375 644 406 622 375 b 547 389 560 375 547 381 z m 778 803 l 819 893 b 926 917 829 913 861 917 b 1003 910 961 917 988 914 b 969 890 1000 904 993 894 b 794 796 858 871 842 861 b 778 803 774 767 758 761 z "},"5":{"ha":625,"x_min":0,"x_max":0,"o":"m 274 0 b 36 47 188 0 96 19 l 149 289 b 338 257 210 267 258 257 b 481 340 424 257 481 283 b 365 408 481 389 449 408 l 197 408 l 442 958 l 983 958 l 874 714 l 571 714 l 522 597 b 753 433 681 596 751 556 b 274 0 756 221 586 0 z m 18 42 b 274 -14 79 8 181 -14 b 767 433 593 -14 769 217 b 543 611 765 558 690 606 l 581 700 l 882 700 l 1006 972 l 433 972 l 176 394 l 365 394 b 467 340 442 394 467 381 b 338 271 467 294 418 271 b 142 307 254 271 207 282 z m 346 647 b 382 704 342 665 374 704 b 357 636 390 704 393 636 b 346 647 350 636 347 640 z m 389 728 b 404 769 388 732 393 747 l 461 896 b 575 917 471 915 497 917 b 683 914 633 917 664 915 b 611 874 681 889 647 879 b 428 760 499 856 493 854 b 389 728 403 724 390 719 z m 418 213 b 456 236 417 221 433 226 b 508 274 489 253 500 274 b 515 263 514 274 515 269 b 443 199 515 229 493 199 b 418 213 431 199 418 204 z "},"6":{"ha":690,"x_min":0,"x_max":0,"o":"m 415 0 b 167 214 249 0 167 72 b 244 547 167 328 199 436 b 771 972 361 832 475 972 b 1004 921 869 972 954 947 l 900 688 b 747 726 867 707 810 726 b 556 594 653 726 589 668 l 539 560 l 571 560 b 724 642 624 617 678 642 b 851 500 818 642 851 585 b 799 297 850 439 831 367 b 415 0 689 57 586 0 z m 153 214 b 415 -14 153 65 243 -14 b 811 292 590 -14 700 47 b 865 500 843 363 864 438 b 724 656 865 589 826 656 b 565 574 676 656 618 629 l 561 574 l 568 589 b 747 713 600 658 660 713 b 907 668 817 713 878 688 l 1022 926 b 771 986 972 957 879 986 b 232 553 468 986 349 839 b 153 214 186 440 153 329 z m 346 643 b 350 675 335 643 340 658 b 713 929 438 825 547 929 b 743 911 731 929 743 925 b 640 863 743 897 726 886 b 374 671 500 824 432 747 b 346 643 363 657 351 643 z m 414 242 b 447 207 414 219 426 207 b 531 310 478 207 501 239 b 526 493 569 404 599 493 l 504 493 l 471 410 b 414 242 432 314 414 263 z m 428 242 b 483 404 428 260 444 310 l 514 479 l 526 479 b 518 315 578 479 556 407 b 447 221 490 247 469 221 b 428 242 435 221 428 228 z m 442 149 b 479 172 440 157 457 163 b 532 210 513 189 524 210 b 539 199 538 210 539 206 b 467 135 539 165 518 135 b 442 149 454 135 442 140 z "},"7":{"ha":551,"x_min":0,"x_max":0,"o":"m 74 14 l 517 714 l 326 714 l 436 958 l 953 958 l 794 707 l 354 14 z m 49 0 l 363 0 l 978 972 l 428 972 l 304 700 l 492 700 z m 390 756 l 449 881 b 561 917 461 907 476 917 b 683 903 642 917 683 914 b 607 879 675 893 644 886 b 433 788 510 861 475 842 b 390 756 413 760 400 756 z m 704 903 b 758 917 704 907 740 917 b 779 906 774 917 779 913 b 749 886 779 893 768 886 b 704 903 733 886 703 899 z "},"8":{"ha":685,"x_min":0,"x_max":0,"o":"m 401 0 b 113 196 224 0 113 58 b 397 508 113 310 161 471 b 339 639 360 542 339 582 b 700 972 339 761 419 972 b 946 788 858 972 946 913 b 699 503 946 675 897 525 b 786 338 760 460 786 425 b 401 0 786 244 731 0 z m 99 196 b 401 -14 99 50 221 -14 b 800 338 742 -14 800 243 b 733 494 800 415 778 457 b 960 788 914 529 960 679 b 700 986 960 919 863 986 b 325 639 410 986 325 764 b 369 517 325 589 342 549 b 99 196 147 471 99 307 z m 383 650 b 685 929 383 821 518 929 b 715 911 703 929 715 925 b 613 867 715 897 699 888 b 413 690 488 836 439 783 b 389 638 404 661 400 638 b 383 650 385 638 383 646 z m 385 228 b 419 190 385 203 400 190 b 500 288 446 190 464 207 b 532 396 514 318 532 371 b 500 429 532 419 518 429 b 414 326 472 429 449 406 b 385 228 399 292 385 250 z m 399 228 b 426 321 399 247 411 286 b 500 415 460 396 479 415 b 518 396 513 415 518 408 b 488 293 518 374 501 324 b 419 204 453 217 439 204 b 399 228 407 204 399 211 z m 433 131 b 447 149 433 136 436 142 b 500 186 479 169 492 186 b 507 175 506 186 507 182 b 457 117 507 129 478 115 b 433 131 444 118 435 124 z m 549 588 b 583 550 549 563 564 550 b 664 647 610 550 628 567 b 696 756 678 678 696 731 b 664 789 696 779 682 789 b 578 686 636 789 613 765 b 549 588 563 651 549 610 z m 563 588 b 590 681 563 607 575 646 b 664 775 624 756 643 775 b 682 756 676 775 682 768 b 651 653 682 733 665 683 b 583 564 617 576 603 564 b 563 588 571 564 563 571 z m 574 490 b 611 514 572 499 589 504 b 664 551 644 531 656 551 b 671 540 669 551 671 547 b 599 476 671 507 650 476 b 574 490 586 476 574 482 z "},"9":{"ha":707,"x_min":0,"x_max":0,"o":"m 317 0 b 83 51 218 0 133 25 l 188 285 b 340 246 221 265 278 246 b 532 378 435 246 499 304 l 549 413 l 515 413 b 364 331 464 356 408 331 b 289 675 203 331 213 508 b 672 972 399 915 501 972 b 921 758 839 972 921 900 b 843 425 921 644 889 536 b 317 0 726 140 613 0 z m 65 46 b 317 -14 115 15 208 -14 b 856 419 619 -14 739 133 b 935 758 901 532 935 643 b 672 986 935 907 844 986 b 276 681 497 986 388 925 b 364 317 199 511 188 317 b 521 399 410 317 469 343 l 526 399 l 519 383 b 340 260 488 314 428 260 b 181 304 271 260 210 285 z m 321 646 b 657 929 347 707 456 929 b 688 911 675 929 688 925 b 585 863 688 897 671 889 b 357 658 461 824 414 742 b 322 625 346 642 335 625 b 321 646 315 625 317 635 z m 422 210 b 460 233 421 218 438 224 b 513 271 493 250 504 271 b 519 260 518 271 519 267 b 447 196 519 226 497 196 b 422 210 435 196 422 201 z m 557 663 b 561 479 518 568 489 479 l 583 479 l 617 563 b 674 731 656 658 674 710 b 640 765 674 753 661 765 b 557 663 610 765 586 733 z m 561 493 b 569 657 510 493 532 565 b 640 751 597 725 618 751 b 660 731 653 751 660 744 b 604 568 660 713 643 663 l 574 493 z "}," ":{"ha":181,"x_min":0,"x_max":0,"o":""}," ":{"ha":181,"x_min":0,"x_max":0,"o":""},"A":{"ha":732,"x_min":0,"x_max":0,"o":"m -28 14 l 597 958 l 983 958 l 763 14 l 488 14 l 526 139 l 332 139 l 257 14 z m -54 0 l 265 0 l 340 125 l 507 125 l 468 0 l 774 0 l 1001 972 l 590 972 z m 414 304 b 528 313 415 311 458 313 b 607 304 551 313 610 311 b 458 258 600 289 528 258 b 414 304 419 258 410 281 z m 443 647 b 490 704 443 665 482 704 b 453 636 499 704 489 636 b 443 647 446 636 443 640 z m 469 364 l 589 364 l 689 688 l 656 688 l 581 556 z m 493 378 l 593 549 l 664 674 l 669 674 l 579 378 z m 501 728 b 525 769 501 732 510 747 l 607 896 b 724 917 619 915 646 917 b 832 914 782 917 813 915 b 753 874 825 889 789 879 b 547 760 636 856 631 854 b 501 728 515 724 501 719 z "},"Á":{"ha":732,"x_min":0,"x_max":0,"o":"m -54 0 l 265 0 l 340 125 l 507 125 l 468 0 l 774 0 l 1001 972 l 590 972 z m 493 378 l 597 549 l 669 674 l 579 378 z m 758 996 l 821 996 l 950 1113 l 840 1113 z "},"Â":{"ha":732,"x_min":0,"x_max":0,"o":"m -54 0 l 265 0 l 340 125 l 507 125 l 468 0 l 774 0 l 1001 972 l 590 972 z m 493 378 l 597 549 l 669 674 l 579 378 z m 658 1014 l 779 1014 l 849 1094 l 878 1014 l 968 1014 l 889 1131 l 821 1131 z "},"Ä":{"ha":732,"x_min":0,"x_max":0,"o":"m -54 0 l 265 0 l 340 125 l 507 125 l 468 0 l 774 0 l 1001 972 l 590 972 z m 493 378 l 597 549 l 669 674 l 579 378 z m 544 1014 l 781 1014 l 810 1079 l 574 1079 z m 836 1014 l 1072 1014 l 1101 1079 l 865 1079 z "},"À":{"ha":732,"x_min":0,"x_max":0,"o":"m -54 0 l 265 0 l 340 125 l 507 125 l 468 0 l 774 0 l 1001 972 l 590 972 z m 493 378 l 597 549 l 669 674 l 579 378 z m 711 1113 l 776 996 l 839 996 l 821 1113 z "},"Å":{"ha":732,"x_min":0,"x_max":0,"o":"m -54 0 l 265 0 l 340 125 l 507 125 l 468 0 l 774 0 l 1001 972 l 590 972 z m 493 378 l 597 549 l 669 674 l 579 378 z m 701 1065 b 819 1007 701 1026 744 1007 b 949 1074 883 1007 947 1022 b 840 1135 950 1115 911 1135 b 701 1065 776 1136 701 1121 z m 740 1067 b 840 1099 740 1092 779 1099 b 911 1075 894 1099 911 1089 b 819 1043 911 1054 878 1043 b 740 1067 760 1043 740 1051 z "},"Ã":{"ha":732,"x_min":0,"x_max":0,"o":"m -54 0 l 265 0 l 340 125 l 507 125 l 468 0 l 774 0 l 1001 972 l 590 972 z m 493 378 l 597 549 l 669 674 l 579 378 z m 663 996 l 736 996 l 776 1064 l 800 1024 b 854 996 810 1007 825 996 b 926 1033 888 996 906 1007 l 989 1113 l 915 1113 l 868 1036 l 843 1078 b 794 1113 828 1103 817 1113 b 726 1076 767 1113 749 1106 z "},"B":{"ha":663,"x_min":0,"x_max":0,"o":"m 393 0 b 810 329 713 0 810 219 b 729 463 810 393 794 438 b 968 765 883 518 968 656 b 688 972 968 900 881 972 l 451 972 l 8 0 z m 31 14 l 460 958 l 688 958 b 954 765 875 958 954 893 b 679 463 954 650 858 504 b 796 329 778 442 796 404 b 393 14 796 222 703 14 z m 364 642 b 404 676 374 642 386 646 l 443 740 b 603 874 506 844 524 854 b 672 903 636 882 672 893 b 594 917 672 914 631 917 b 481 896 517 917 490 917 l 407 735 z m 403 238 l 435 238 b 565 383 519 238 565 315 b 497 440 565 422 542 440 z m 425 251 l 506 426 b 551 383 538 424 551 411 b 435 251 551 321 510 251 z m 435 174 b 474 154 435 161 453 154 b 583 233 532 154 583 186 b 574 246 583 242 579 246 b 508 210 568 246 547 226 b 435 174 467 190 435 183 z m 539 536 l 576 536 b 701 685 656 536 701 629 b 633 742 701 718 688 738 z m 561 550 l 642 726 b 688 685 679 722 688 710 b 576 550 688 633 646 550 z m 586 489 b 614 479 586 482 597 479 b 692 531 660 479 692 500 b 685 539 692 536 689 539 b 629 511 676 539 660 526 b 586 489 594 494 586 494 z m 693 903 b 738 886 692 899 722 886 b 768 906 757 886 768 893 b 747 917 768 913 763 917 b 693 903 729 917 693 907 z "},"C":{"ha":693,"x_min":0,"x_max":0,"o":"m 431 -3 b 181 264 276 -3 174 79 b 294 607 183 346 213 456 b 740 974 419 849 525 974 b 968 746 892 974 974 892 b 894 510 965 664 933 574 l 632 510 b 718 719 692 632 718 690 b 686 750 718 739 704 750 b 646 726 671 750 657 742 b 438 251 594 658 438 322 b 468 217 438 226 451 217 b 596 429 494 217 525 254 l 857 429 b 431 -3 742 139 618 -3 z m 167 264 b 431 -17 160 72 271 -17 b 878 443 629 -17 758 138 l 586 443 b 468 231 514 264 485 231 b 451 251 457 231 451 238 b 657 718 451 318 607 651 b 686 736 667 731 675 736 b 704 719 696 736 704 731 b 610 496 704 692 676 632 l 903 496 b 982 746 943 561 979 658 b 740 988 988 897 897 988 b 282 614 518 988 408 857 b 167 264 200 461 169 347 z m 369 643 b 378 675 358 643 372 665 b 719 929 465 825 554 929 b 744 919 738 929 744 925 b 647 861 744 906 733 885 b 404 671 531 829 457 747 b 369 643 394 657 379 643 z m 450 164 b 490 189 449 172 467 179 b 547 229 526 207 538 229 b 554 217 553 229 554 225 b 476 149 554 182 531 149 b 450 164 464 149 450 154 z "},"Ć":{"ha":693,"x_min":0,"x_max":0,"o":"m 431 -17 b 878 443 629 -17 758 138 l 586 443 b 463 231 514 264 479 231 b 450 256 451 231 450 242 b 665 718 454 350 615 651 b 690 736 675 731 683 736 b 704 719 699 736 704 731 b 610 496 704 692 676 632 l 903 496 b 982 746 943 561 979 658 b 740 988 988 897 897 988 b 282 614 518 988 408 857 b 167 264 200 461 169 347 b 431 -17 160 72 271 -17 z m 724 996 l 786 996 l 915 1113 l 806 1113 z "},"Č":{"ha":693,"x_min":0,"x_max":0,"o":"m 431 -17 b 878 443 629 -17 758 138 l 586 443 b 463 231 514 264 479 231 b 450 256 451 231 450 242 b 665 718 454 350 615 651 b 690 736 675 731 683 736 b 704 719 699 736 704 731 b 610 496 704 692 676 632 l 903 496 b 982 746 943 561 979 658 b 740 988 988 897 897 988 b 282 614 518 988 408 857 b 167 264 200 461 169 347 b 431 -17 160 72 271 -17 z m 663 1113 l 742 996 l 810 996 l 972 1113 l 860 1113 l 788 1038 l 761 1113 z "},"Ç":{"ha":693,"x_min":0,"x_max":0,"o":"m 431 -17 b 878 443 629 -17 758 138 l 586 443 b 463 231 514 264 479 231 b 450 256 451 231 450 242 b 665 718 454 350 615 651 b 690 736 675 731 683 736 b 704 719 699 736 704 731 b 610 496 704 692 676 632 l 903 496 b 982 746 943 561 979 658 b 740 988 988 897 897 988 b 282 614 518 988 408 857 b 167 264 200 461 169 347 b 324 -1 161 118 224 32 l 283 -85 l 329 -97 b 385 -85 349 -87 365 -85 b 358 -137 428 -85 418 -137 b 257 -104 317 -137 282 -121 l 229 -168 b 338 -193 275 -189 301 -193 b 469 -99 428 -193 469 -150 b 399 -37 469 -51 432 -37 b 340 -49 376 -37 357 -42 l 361 -10 b 431 -17 383 -14 406 -17 z "},"D":{"ha":718,"x_min":0,"x_max":0,"o":"m 429 14 l 38 14 l 467 958 l 699 958 b 950 707 853 958 950 881 b 863 363 950 625 936 510 b 429 14 751 129 640 14 z m 15 0 l 429 0 b 875 357 646 0 763 121 b 964 707 950 506 964 624 b 699 972 964 888 857 972 l 458 972 z m 371 643 b 386 685 369 647 375 661 l 485 896 b 599 917 494 917 521 917 b 676 903 635 917 676 914 b 607 874 676 893 640 882 b 408 676 524 854 508 851 b 371 643 388 639 371 635 z m 410 232 l 454 232 b 622 463 492 232 526 251 b 703 689 696 618 703 660 b 665 736 703 722 685 736 l 640 736 z m 432 246 l 649 722 l 665 722 b 689 689 679 722 689 711 b 610 468 689 661 682 622 b 454 246 517 264 485 246 z m 458 179 b 508 199 458 188 479 183 b 554 232 539 214 546 232 b 564 217 560 232 564 226 b 499 161 564 185 535 161 b 458 179 485 161 458 165 z m 697 903 b 751 917 697 907 733 917 b 772 906 767 917 772 913 b 742 886 772 893 761 886 b 697 903 726 886 696 899 z "},"Ď":{"ha":718,"x_min":0,"x_max":0,"o":"m 15 0 l 429 0 b 875 357 646 0 763 121 b 964 707 950 506 964 624 b 699 972 964 888 857 972 l 458 972 z m 432 246 l 649 722 l 665 722 b 689 689 679 722 689 711 b 610 468 689 661 682 622 b 461 246 517 264 479 246 z m 624 1113 l 703 996 l 771 996 l 933 1113 l 821 1113 l 749 1038 l 722 1113 z "},"Đ":{"ha":749,"x_min":0,"x_max":0,"o":"m 46 0 l 460 0 b 906 357 676 0 793 121 b 994 707 981 506 994 624 b 729 972 994 888 888 972 l 489 972 l 290 531 l 258 531 l 226 463 l 257 463 z m 463 246 l 558 457 l 603 457 l 636 531 l 593 531 l 679 722 l 696 722 b 719 689 710 722 719 711 b 640 468 719 661 713 622 b 492 246 547 264 510 246 z "},"Ð":{"ha":749,"x_min":0,"x_max":0,"o":"m 46 0 l 460 0 b 906 357 676 0 793 121 b 994 707 981 506 994 624 b 729 972 994 888 888 972 l 489 972 l 290 531 l 258 531 l 226 463 l 257 463 z m 463 246 l 558 457 l 603 457 l 636 531 l 593 531 l 679 722 l 696 722 b 719 689 710 722 719 711 b 640 468 719 661 713 622 b 492 246 547 264 510 246 z "},"E":{"ha":610,"x_min":0,"x_max":0,"o":"m 40 14 l 469 958 l 1011 958 l 899 710 l 629 710 l 583 615 l 803 615 l 690 367 l 471 367 l 419 258 l 688 258 l 578 14 z m 18 0 l 586 0 l 710 272 l 442 272 l 479 353 l 699 353 l 824 629 l 606 629 l 638 696 l 907 696 l 1032 972 l 461 972 z m 371 643 l 489 896 b 638 917 499 917 525 917 b 726 914 675 917 708 915 b 606 867 726 890 675 882 b 413 676 513 846 515 831 b 371 643 396 651 383 643 z m 471 210 b 532 218 472 215 514 218 b 600 210 567 218 600 215 b 510 182 600 203 557 182 b 471 210 490 182 467 189 z m 574 564 b 660 574 575 569 613 574 b 728 567 681 574 731 572 b 621 536 722 553 663 536 b 574 564 599 536 571 543 z "},"É":{"ha":610,"x_min":0,"x_max":0,"o":"m 18 0 l 586 0 l 710 272 l 442 272 l 479 353 l 699 353 l 824 629 l 606 629 l 638 696 l 907 696 l 1032 972 l 461 972 z m 713 996 l 775 996 l 904 1113 l 794 1113 z "},"Ě":{"ha":610,"x_min":0,"x_max":0,"o":"m 18 0 l 586 0 l 710 272 l 442 272 l 479 353 l 699 353 l 824 629 l 606 629 l 638 696 l 907 696 l 1032 972 l 461 972 z m 650 1113 l 729 996 l 797 996 l 960 1113 l 847 1113 l 775 1038 l 749 1113 z "},"Ê":{"ha":610,"x_min":0,"x_max":0,"o":"m 18 0 l 586 0 l 710 272 l 442 272 l 479 353 l 699 353 l 824 629 l 606 629 l 638 696 l 907 696 l 1032 972 l 461 972 z m 626 996 l 700 996 l 740 1064 l 764 1024 b 818 996 774 1007 789 996 b 890 1033 851 996 869 1007 l 953 1113 l 879 1113 l 832 1036 l 807 1078 b 758 1113 792 1103 781 1113 b 690 1076 731 1113 713 1106 z "},"Ë":{"ha":610,"x_min":0,"x_max":0,"o":"m 18 0 l 586 0 l 710 272 l 442 272 l 479 353 l 699 353 l 824 629 l 606 629 l 638 696 l 907 696 l 1032 972 l 461 972 z m 490 1014 l 726 1014 l 756 1079 l 519 1079 z m 782 1014 l 1018 1014 l 1047 1079 l 811 1079 z "},"È":{"ha":610,"x_min":0,"x_max":0,"o":"m 18 0 l 586 0 l 710 272 l 442 272 l 479 353 l 699 353 l 824 629 l 606 629 l 638 696 l 907 696 l 1032 972 l 461 972 z m 664 1113 l 729 996 l 792 996 l 774 1113 z "},"F":{"ha":607,"x_min":0,"x_max":0,"o":"m 43 14 l 472 958 l 1013 958 l 903 714 l 632 714 l 572 588 l 804 588 l 694 343 l 463 343 l 313 14 z m 21 0 l 321 0 l 471 329 l 703 329 l 826 601 l 594 601 l 640 700 l 911 700 l 1035 972 l 464 972 z m 374 646 b 411 704 374 661 403 704 b 381 635 419 704 408 635 b 374 646 374 635 372 639 z m 418 728 b 432 769 417 732 421 746 l 492 896 b 603 917 501 915 525 917 b 713 914 661 917 693 915 b 640 874 711 889 675 879 b 454 760 528 856 521 853 b 418 728 428 724 419 724 z m 576 540 b 675 550 576 546 615 550 b 743 543 696 550 744 549 b 626 514 740 532 681 514 b 576 540 593 514 576 522 z "},"G":{"ha":753,"x_min":0,"x_max":0,"o":"m 457 -3 b 193 260 297 -3 193 81 b 299 610 193 344 221 453 b 735 972 415 849 525 972 b 1010 747 911 972 1010 886 b 968 581 1010 688 990 625 l 681 581 b 733 714 713 644 733 688 b 699 750 733 736 719 750 b 533 511 665 750 632 729 b 456 274 461 353 456 292 b 506 218 456 232 482 218 b 607 329 536 218 567 242 l 531 329 l 615 515 l 943 515 b 457 -3 819 171 694 -3 z m 179 260 b 457 -17 179 74 292 -17 b 963 529 706 -17 836 171 l 607 529 l 508 315 l 585 315 b 506 232 551 249 528 232 b 469 274 488 232 469 242 b 546 506 469 292 475 349 b 699 736 642 717 672 736 b 719 714 711 736 719 728 b 658 567 719 688 696 642 l 976 567 b 1024 747 1001 613 1024 682 b 735 986 1024 893 917 986 b 286 615 519 986 404 857 b 179 260 208 458 179 346 z m 369 643 b 378 675 358 643 372 665 b 719 929 465 825 554 929 b 744 919 738 929 744 925 b 647 861 744 906 733 885 b 404 671 531 829 457 747 b 369 643 394 657 379 643 z m 508 165 b 546 189 507 174 524 179 b 599 226 579 206 590 226 b 606 217 603 226 606 224 b 533 151 606 183 576 151 b 508 165 521 151 508 157 z m 663 464 b 789 474 663 469 701 474 b 857 467 810 474 858 472 b 724 438 854 456 789 438 b 663 464 679 438 663 446 z "},"H":{"ha":715,"x_min":0,"x_max":0,"o":"m 44 14 l 474 958 l 744 958 l 574 583 l 668 583 l 839 958 l 1110 958 l 681 14 l 410 14 l 568 361 l 474 361 l 315 14 z m 22 0 l 324 0 l 482 347 l 546 347 l 388 0 l 689 0 l 1132 972 l 831 972 l 660 597 l 596 597 l 767 972 l 465 972 z m 371 643 l 486 886 b 596 917 496 910 513 917 b 682 913 635 917 661 915 b 614 881 674 896 660 890 b 413 676 519 861 519 850 b 371 643 401 658 388 643 z m 526 532 b 625 540 528 538 565 542 b 693 532 646 540 696 538 b 574 503 688 518 628 501 b 526 532 540 503 524 511 z m 815 803 l 857 893 b 964 917 867 913 899 917 b 1040 910 999 917 1025 914 b 1007 890 1038 904 1031 894 b 832 796 896 871 879 861 b 815 803 811 767 796 761 z "},"I":{"ha":354,"x_min":0,"x_max":0,"o":"m 46 14 l 475 958 l 744 958 l 315 14 z m 24 0 l 324 0 l 767 972 l 467 972 z m 371 643 l 486 886 b 596 917 496 910 513 917 b 682 913 635 917 661 915 b 614 881 674 896 660 890 b 413 676 519 861 519 850 b 371 643 401 658 388 643 z "},"Í":{"ha":354,"x_min":0,"x_max":0,"o":"m 24 0 l 324 0 l 767 972 l 467 972 z m 590 996 l 653 996 l 782 1113 l 672 1113 z "},"Î":{"ha":368,"x_min":0,"x_max":0,"o":"m 38 0 l 338 0 l 781 972 l 481 972 z m 486 1014 l 607 1014 l 676 1094 l 706 1014 l 796 1014 l 717 1131 l 649 1131 z "},"Ï":{"ha":342,"x_min":0,"x_max":0,"o":"m 22 0 l 322 0 l 765 972 l 465 972 z m 372 1014 l 608 1014 l 638 1079 l 401 1079 z m 664 1014 l 900 1014 l 929 1079 l 693 1079 z "},"Ì":{"ha":358,"x_min":0,"x_max":0,"o":"m 28 0 l 328 0 l 771 972 l 471 972 z m 531 1113 l 596 996 l 658 996 l 640 1113 z "},"J":{"ha":467,"x_min":0,"x_max":0,"o":"m 117 258 b 307 331 207 258 275 263 l 597 958 l 867 958 l 532 229 b 119 14 476 108 392 14 l 104 14 z m 89 0 l 119 0 b 544 224 397 0 488 100 l 889 972 l 589 972 l 294 336 b 104 272 265 274 200 272 z m 240 214 b 278 238 239 222 256 228 b 331 275 311 254 322 275 b 338 264 336 275 338 271 b 265 200 338 231 315 200 b 240 214 253 200 240 206 z m 496 643 l 611 886 b 721 917 622 910 638 917 b 807 913 760 917 786 915 b 739 881 799 896 785 890 b 538 676 644 861 644 850 b 496 643 526 658 513 643 z "},"K":{"ha":701,"x_min":0,"x_max":0,"o":"m 43 14 l 472 958 l 742 958 l 557 554 l 590 554 l 882 958 l 1146 958 l 738 404 l 714 14 l 444 14 l 511 378 l 482 378 l 313 14 z m 21 0 l 321 0 l 490 364 l 494 364 l 428 0 l 726 0 l 751 399 l 1174 972 l 875 972 l 583 568 l 579 568 l 764 972 l 464 972 z m 378 646 b 414 704 378 661 406 704 b 385 635 422 704 413 635 b 378 646 378 635 376 639 z m 421 728 b 435 769 419 732 424 746 l 492 896 b 603 917 500 915 525 917 b 672 914 661 917 653 915 b 600 874 671 889 635 882 b 457 760 540 860 522 853 b 421 728 431 724 422 724 z m 553 489 b 590 513 551 497 568 503 b 643 550 624 529 635 550 b 650 539 649 550 650 546 b 578 475 650 506 628 475 b 553 489 565 475 553 481 z m 818 803 l 886 893 b 1000 917 901 913 935 917 b 1061 910 1035 917 1047 914 b 1021 890 1056 901 1046 896 b 838 796 919 869 904 861 b 818 803 808 767 786 761 z "},"L":{"ha":492,"x_min":0,"x_max":0,"o":"m 44 14 l 474 958 l 743 958 l 424 258 l 581 258 l 471 14 z m 22 0 l 479 0 l 603 272 l 446 272 l 765 972 l 465 972 z m 371 643 l 486 886 b 596 917 497 910 513 917 b 682 913 635 917 661 915 b 614 881 674 896 660 890 b 413 676 519 861 521 851 b 371 643 401 658 388 643 z m 400 208 b 468 217 401 214 426 218 b 514 208 482 217 515 214 b 432 179 510 194 469 178 b 400 208 410 179 399 188 z "},"Ĺ":{"ha":482,"x_min":0,"x_max":0,"o":"m 26 0 l 483 0 l 607 272 l 450 272 l 769 972 l 469 972 z m 581 996 l 643 996 l 772 1113 l 663 1113 z "},"M":{"ha":996,"x_min":0,"x_max":0,"o":"m 49 14 l 478 958 l 840 958 l 726 550 l 757 550 l 978 958 l 1378 958 l 967 14 l 713 14 l 997 592 l 961 592 l 590 14 l 428 14 l 554 592 l 525 592 l 299 14 z m 26 0 l 308 0 l 535 578 l 538 578 l 411 0 l 597 0 l 968 578 l 975 578 l 690 0 l 976 0 l 1399 972 l 969 972 l 749 564 l 744 564 l 858 972 l 469 972 z m 379 643 l 497 896 b 646 917 507 917 533 917 b 735 914 683 917 717 915 b 614 867 735 890 683 882 b 418 676 521 846 521 831 b 379 643 401 651 389 643 z m 715 489 b 753 513 714 497 731 503 b 806 550 786 529 797 550 b 813 539 811 550 813 546 b 740 475 813 506 790 475 b 715 489 728 475 715 481 z m 940 803 l 992 893 b 1163 917 1003 913 1036 917 b 1289 910 1228 917 1275 914 b 1200 882 1286 904 1278 882 b 961 796 1074 882 1015 861 b 940 803 936 767 917 761 z "},"N":{"ha":750,"x_min":0,"x_max":0,"o":"m 40 14 l 469 958 l 726 958 l 676 550 l 707 550 l 879 958 l 1144 958 l 715 14 l 454 14 l 518 443 l 483 443 l 296 14 z m 18 0 l 306 0 l 493 429 l 501 429 l 438 0 l 724 0 l 1167 972 l 869 972 l 697 564 l 692 564 l 742 972 l 461 972 z m 374 643 l 488 896 b 613 917 497 917 500 917 b 678 914 650 917 660 915 b 604 867 678 890 653 881 b 413 676 525 843 513 831 b 374 643 396 651 383 643 z m 660 478 b 697 501 658 486 675 492 b 750 539 731 518 742 539 b 757 528 756 539 757 535 b 685 464 757 494 735 464 b 660 478 672 464 660 469 z m 857 803 l 896 893 b 1003 917 906 913 938 917 b 1079 910 1038 917 1064 914 b 1046 890 1076 904 1069 894 b 874 796 936 871 919 861 b 857 803 853 767 839 761 z "},"Ń":{"ha":754,"x_min":0,"x_max":0,"o":"m 22 0 l 310 0 l 497 429 l 442 0 l 728 0 l 1171 972 l 874 972 l 696 564 l 746 972 l 465 972 z m 775 996 l 838 996 l 967 1113 l 857 1113 z "},"Ň":{"ha":754,"x_min":0,"x_max":0,"o":"m 22 0 l 310 0 l 497 429 l 442 0 l 728 0 l 1171 972 l 874 972 l 696 564 l 746 972 l 465 972 z m 700 1113 l 779 996 l 847 996 l 1010 1113 l 897 1113 l 825 1038 l 799 1113 z "},"Ñ":{"ha":747,"x_min":0,"x_max":0,"o":"m 21 0 l 308 0 l 496 429 l 440 0 l 726 0 l 1169 972 l 872 972 l 694 564 l 744 972 l 464 972 z m 686 996 l 760 996 l 800 1064 l 824 1024 b 878 996 833 1007 849 996 b 950 1033 911 996 929 1007 l 1013 1113 l 939 1113 l 892 1036 l 867 1078 b 818 1113 851 1103 840 1113 b 750 1076 790 1113 772 1106 z "},"O":{"ha":758,"x_min":0,"x_max":0,"o":"m 421 -3 b 179 247 258 3 169 63 b 299 592 185 331 215 440 b 786 972 428 831 547 972 b 1014 744 953 972 1021 894 b 892 363 1008 631 976 518 b 421 -3 764 121 629 -11 z m 165 249 b 421 -17 156 56 254 -11 b 904 356 635 -25 775 113 b 1028 744 989 513 1022 628 b 786 986 1035 900 958 986 b 286 599 540 986 417 839 b 165 249 203 446 171 333 z m 393 643 b 399 675 376 643 393 665 b 761 929 497 825 596 929 b 792 911 779 929 792 925 b 689 861 792 897 775 885 b 425 671 572 829 483 747 b 393 643 414 657 403 643 z m 449 256 b 478 219 446 235 460 219 b 651 461 503 219 540 242 b 750 714 733 625 747 682 b 719 750 750 740 736 750 b 546 510 693 750 658 725 b 449 256 464 346 450 286 z m 463 254 b 558 503 464 285 476 342 b 719 736 668 714 701 736 b 736 714 731 736 736 729 b 639 468 733 685 721 629 b 478 233 531 254 496 233 b 463 254 468 233 461 242 z m 471 157 b 522 189 469 168 492 176 b 594 240 568 211 582 240 b 603 225 601 240 603 235 b 506 138 603 179 574 138 b 471 157 489 138 471 146 z "},"Ó":{"ha":758,"x_min":0,"x_max":0,"o":"m 421 -17 b 904 356 635 -25 775 113 b 1028 744 989 513 1022 628 b 786 986 1035 900 951 981 b 286 599 540 994 417 839 b 165 249 203 446 171 333 b 421 -17 156 56 254 -11 z m 463 254 b 558 503 464 285 476 342 b 719 736 668 714 701 736 b 736 714 729 735 736 731 b 639 468 733 685 721 629 b 478 233 531 254 496 233 b 463 254 469 235 461 239 z m 768 996 l 831 996 l 960 1113 l 850 1113 z "},"Ô":{"ha":689,"x_min":0,"x_max":0,"o":"m 394 -17 b 878 356 608 -25 749 113 b 1001 744 963 513 996 628 b 760 986 1008 900 932 986 b 260 599 514 986 390 839 b 139 249 176 446 144 333 b 394 -17 129 56 228 -11 z m 436 254 b 532 503 438 285 450 342 b 693 736 642 714 675 736 b 710 714 703 735 710 731 b 613 468 707 685 694 629 b 451 233 504 254 469 233 b 436 254 443 235 435 239 z m 651 1014 l 772 1014 l 842 1094 l 871 1014 l 961 1014 l 882 1131 l 814 1131 z "},"Ö":{"ha":700,"x_min":0,"x_max":0,"o":"m 394 -17 b 878 356 608 -25 749 113 b 1001 744 963 513 996 628 b 751 986 1008 901 921 986 b 260 599 514 986 390 839 b 139 249 176 446 144 333 b 394 -17 129 56 228 -11 z m 436 254 b 532 503 438 285 450 342 b 693 736 642 714 675 736 b 710 714 703 735 710 731 b 613 468 707 685 694 629 b 451 233 504 254 469 233 b 436 254 443 235 435 239 z m 519 1014 l 756 1014 l 785 1079 l 549 1079 z m 811 1014 l 1047 1014 l 1076 1079 l 840 1079 z "},"Ò":{"ha":689,"x_min":0,"x_max":0,"o":"m 394 -17 b 878 356 608 -25 749 113 b 1001 744 963 513 996 628 b 760 986 1008 900 932 986 b 260 599 514 986 390 839 b 139 249 176 446 144 333 b 394 -17 129 56 228 -11 z m 436 254 b 532 503 438 285 450 342 b 693 736 642 714 675 736 b 710 714 703 735 710 731 b 613 468 707 685 694 629 b 451 233 504 254 469 233 b 436 254 443 235 435 239 z m 682 1113 l 747 996 l 810 996 l 792 1113 z "},"Ø":{"ha":767,"x_min":0,"x_max":0,"o":"m 74 -18 l 200 92 b 429 -17 240 17 319 -12 b 913 356 643 -25 783 113 b 1036 744 997 513 1031 628 b 1033 810 1038 769 1036 792 l 1178 935 l 1128 990 l 1010 889 b 794 986 979 949 907 986 b 294 599 549 986 425 839 b 174 249 211 446 179 333 b 176 168 172 219 174 192 l 25 36 z m 471 254 b 494 344 472 271 476 297 l 656 485 l 647 468 b 486 233 539 254 504 233 b 471 254 478 235 469 239 z m 569 507 b 728 736 676 714 710 736 b 744 714 738 735 744 731 b 726 643 743 700 739 679 z "},"Õ":{"ha":689,"x_min":0,"x_max":0,"o":"m 394 -17 b 878 356 608 -25 749 113 b 1001 744 963 513 996 628 b 760 986 1008 900 932 986 b 260 599 514 986 390 839 b 139 249 176 446 144 333 b 394 -17 129 56 228 -11 z m 436 254 b 532 503 438 285 450 342 b 693 736 642 714 675 736 b 710 714 703 735 710 731 b 613 468 707 685 694 629 b 451 233 504 254 469 233 b 436 254 443 235 435 239 z m 656 996 l 729 996 l 769 1064 l 793 1024 b 847 996 803 1007 818 996 b 919 1033 881 996 899 1007 l 982 1113 l 908 1113 l 861 1036 l 836 1078 b 788 1113 821 1103 810 1113 b 719 1076 760 1113 742 1106 z "},"P":{"ha":692,"x_min":0,"x_max":0,"o":"m 43 14 l 472 958 l 679 958 b 958 706 893 958 958 868 b 464 208 958 483 794 210 b 401 210 443 207 422 208 l 313 14 z m 21 0 l 321 0 l 410 196 b 464 194 428 194 446 193 b 972 706 803 196 972 479 b 679 972 972 872 900 972 l 464 972 z m 378 643 b 393 685 376 647 382 661 l 492 896 b 606 917 501 917 528 917 b 683 903 642 917 683 914 b 614 874 683 893 647 882 b 415 676 531 854 515 851 b 378 643 394 639 378 635 z m 506 428 b 703 667 643 407 703 597 b 633 713 703 704 678 719 z m 526 440 l 643 700 b 689 667 674 703 689 693 b 526 440 689 604 638 440 z m 557 388 b 607 407 557 396 578 392 b 653 440 638 422 644 440 b 663 425 658 440 663 435 b 597 369 663 393 633 369 b 557 388 583 369 557 374 z m 704 903 b 758 917 704 907 740 917 b 779 906 774 917 779 913 b 749 886 779 893 768 886 b 704 903 733 886 703 899 z "},"Q":{"ha":743,"x_min":0,"x_max":0,"o":"m 438 36 b 360 25 414 28 392 25 b 171 264 231 25 157 104 b 304 608 178 346 214 457 b 771 974 442 849 558 974 b 1011 717 931 974 1026 894 b 878 364 1003 633 969 519 b 685 101 819 261 767 178 l 714 -53 l 426 -53 z m 157 265 b 360 11 143 99 225 11 b 421 17 383 11 403 13 l 411 -67 l 731 -67 l 700 96 b 890 357 781 172 833 257 b 1025 715 982 514 1017 631 b 771 988 1040 900 936 988 b 292 615 553 988 431 857 b 157 265 201 463 164 349 z m 382 643 b 393 675 371 643 385 665 b 751 929 489 825 586 929 b 776 919 769 929 776 925 b 674 861 774 906 763 885 b 417 671 554 829 475 747 b 382 643 407 657 392 643 z m 436 253 b 464 218 433 232 446 218 b 646 461 490 218 528 243 b 753 715 735 624 750 685 b 724 750 756 736 742 750 b 542 507 697 750 661 725 b 436 253 454 344 438 283 z m 450 251 b 554 500 451 281 467 338 b 724 736 671 714 706 736 b 739 717 733 736 740 729 b 633 468 736 688 722 629 b 464 232 518 254 482 232 b 450 251 456 232 447 236 z m 453 165 b 490 189 451 174 468 179 b 543 226 524 206 535 226 b 550 215 549 226 550 222 b 478 151 550 182 528 151 b 453 165 465 151 453 157 z "},"R":{"ha":696,"x_min":0,"x_max":0,"o":"m 38 14 l 467 958 l 683 958 b 957 728 863 958 957 903 b 731 346 957 578 881 432 l 719 340 l 765 14 l 489 14 l 496 268 b 421 264 468 265 446 264 l 307 14 z m 15 0 l 315 0 l 429 250 b 482 253 447 250 464 251 l 475 0 l 781 0 l 735 332 l 738 333 b 971 728 892 422 971 575 b 683 972 971 911 867 972 l 458 972 z m 368 642 l 475 875 b 599 917 494 917 521 917 b 676 903 635 917 676 914 b 607 874 676 886 640 881 b 408 676 519 857 510 849 b 368 642 390 646 378 642 z m 504 451 l 538 451 b 668 547 603 451 644 510 b 710 674 688 582 710 636 b 650 728 710 711 690 728 l 631 728 z m 526 465 l 639 714 l 650 714 b 696 674 683 714 696 703 b 656 554 696 639 675 588 b 538 465 633 518 596 465 z m 549 393 b 597 422 549 404 569 411 b 674 471 653 444 663 471 b 682 457 681 471 682 465 b 581 374 682 413 646 374 b 549 393 563 374 549 382 z m 697 897 b 751 917 697 911 733 917 b 790 897 775 917 790 911 b 744 878 790 883 772 878 b 697 897 724 878 697 885 z "},"Ŕ":{"ha":696,"x_min":0,"x_max":0,"o":"m 15 0 l 315 0 l 429 250 b 482 253 447 250 464 251 l 475 0 l 781 0 l 735 332 l 738 335 b 971 728 892 424 971 575 b 683 972 971 911 867 972 l 458 972 z m 526 464 l 639 714 l 650 714 b 696 674 683 714 696 703 b 656 554 696 639 675 588 b 538 465 633 518 596 472 z m 685 996 l 747 996 l 876 1113 l 767 1113 z "},"Ř":{"ha":696,"x_min":0,"x_max":0,"o":"m 15 0 l 315 0 l 429 250 b 482 253 447 250 464 251 l 475 0 l 781 0 l 735 332 l 738 335 b 971 728 892 424 971 575 b 683 972 971 911 867 972 l 458 972 z m 526 464 l 639 714 l 650 714 b 696 674 683 714 696 703 b 656 554 696 639 675 588 b 538 465 633 518 596 472 z m 624 1113 l 703 996 l 771 996 l 933 1113 l 821 1113 l 749 1038 l 722 1113 z "},"S":{"ha":621,"x_min":0,"x_max":0,"o":"m 364 1 b 76 64 244 1 156 24 l 189 310 b 396 250 251 276 333 250 b 492 317 467 250 492 281 b 410 431 492 358 450 383 b 318 626 364 486 318 536 b 699 972 318 831 476 972 b 982 904 824 972 928 939 l 872 663 b 665 732 828 693 757 732 b 578 658 611 732 578 706 b 658 535 578 631 592 600 b 756 342 728 461 756 406 b 364 1 756 142 593 1 z m 58 57 b 364 -12 142 13 238 -12 b 769 342 599 -12 769 135 b 668 544 769 408 739 469 b 592 658 604 607 592 635 b 665 718 592 697 618 718 b 878 642 764 718 836 672 l 1000 908 b 699 986 947 947 833 986 b 304 626 471 986 304 836 b 399 422 304 531 353 476 b 478 317 440 372 478 350 b 396 264 478 288 458 264 b 182 329 331 264 244 293 z m 360 657 b 696 929 360 790 488 929 b 721 919 714 929 721 925 b 618 861 718 906 707 885 b 383 685 499 829 428 789 b 365 643 376 669 371 643 b 360 657 360 643 360 650 z m 439 200 b 476 224 438 208 454 214 b 529 261 510 240 521 261 b 536 250 535 261 536 257 b 464 186 536 217 514 186 b 439 200 451 186 439 192 z "},"Ś":{"ha":615,"x_min":0,"x_max":0,"o":"m 353 -12 b 758 342 588 -12 758 135 b 657 544 758 408 728 469 b 581 658 593 607 581 635 b 654 718 581 697 607 718 b 867 642 753 718 825 672 l 989 908 b 688 986 936 947 822 986 b 293 626 460 986 293 836 b 388 422 293 531 342 476 b 467 317 429 372 467 350 b 385 264 467 288 447 264 b 171 329 319 264 233 293 l 47 57 b 353 -12 131 13 226 -12 z m 658 996 l 721 996 l 850 1113 l 740 1113 z "},"Š":{"ha":615,"x_min":0,"x_max":0,"o":"m 353 -12 b 758 342 588 -12 758 135 b 657 544 758 408 728 469 b 581 658 593 607 581 635 b 654 718 581 697 607 718 b 867 642 753 718 825 672 l 989 908 b 688 986 936 947 822 986 b 293 626 460 986 293 836 b 388 422 293 531 342 476 b 467 317 429 372 467 350 b 385 264 467 288 447 264 b 171 329 319 264 233 293 l 47 57 b 353 -12 131 13 226 -12 z m 614 1113 l 693 996 l 761 996 l 924 1113 l 811 1113 l 739 1038 l 713 1113 z "},"T":{"ha":574,"x_min":0,"x_max":0,"o":"m 156 14 l 474 713 l 349 713 l 460 958 l 981 958 l 869 713 l 746 713 l 428 14 z m 133 0 l 436 0 l 754 699 l 878 699 l 1003 972 l 451 972 l 326 699 l 451 699 z m 417 756 l 475 881 b 588 917 486 907 503 917 b 710 903 668 917 710 914 b 633 879 701 893 671 886 b 460 788 536 861 501 842 b 417 756 439 760 426 756 z m 731 903 b 785 917 731 907 767 917 b 806 906 800 917 806 913 b 775 886 806 893 794 886 b 731 903 760 886 729 899 z "},"Ť":{"ha":569,"x_min":0,"x_max":0,"o":"m 133 0 l 436 0 l 754 699 l 878 699 l 1003 972 l 451 972 l 326 699 l 451 699 z m 621 1113 l 700 996 l 768 996 l 931 1113 l 818 1113 l 746 1038 l 719 1113 z "},"U":{"ha":706,"x_min":0,"x_max":0,"o":"m 436 -4 b 175 222 258 -4 175 90 b 236 436 175 272 190 336 l 474 957 l 742 957 l 456 328 b 433 256 442 297 433 272 b 469 219 433 233 447 219 b 532 290 494 219 510 240 l 835 957 l 1106 958 l 772 222 b 436 -4 694 51 597 -4 z m 161 222 b 436 -18 161 85 253 -18 b 785 217 601 -18 706 42 l 1128 972 l 826 971 l 519 296 b 469 233 499 249 486 233 b 447 256 456 233 447 242 b 468 322 447 269 454 292 l 764 971 l 465 971 l 224 442 b 161 222 178 340 161 274 z m 374 646 b 411 704 374 661 403 704 b 381 635 419 704 408 635 b 374 646 374 635 372 639 z m 418 728 b 432 769 417 732 421 746 l 492 896 b 603 917 501 915 525 917 b 682 913 635 917 661 915 b 614 881 674 896 660 890 b 454 760 501 857 521 853 b 418 728 428 724 419 724 z m 453 165 b 490 188 453 174 468 175 b 549 226 529 210 535 226 b 563 211 556 226 563 224 b 478 151 563 183 521 151 b 453 165 463 151 453 157 z m 815 803 l 857 893 b 964 917 867 913 899 917 b 1040 910 999 917 1025 914 b 1007 890 1038 904 1031 894 b 832 796 896 871 879 861 b 815 803 811 767 796 761 z "},"Ú":{"ha":704,"x_min":0,"x_max":0,"o":"m 436 -17 b 785 218 601 -17 706 43 l 1128 972 l 826 972 l 519 297 b 472 235 499 250 486 235 b 449 257 458 235 449 243 b 468 324 449 271 454 293 l 764 972 l 465 972 l 224 443 b 161 224 178 342 161 275 b 436 -17 161 86 253 -17 z m 765 996 l 828 996 l 957 1113 l 847 1113 z "},"Û":{"ha":714,"x_min":0,"x_max":0,"o":"m 439 -18 b 788 217 604 -18 708 42 l 1131 971 l 829 971 l 522 296 b 475 233 501 249 489 233 b 451 256 461 233 451 242 b 471 322 451 269 457 292 l 767 971 l 468 971 l 226 442 b 164 222 181 340 164 274 b 439 -18 164 85 256 -18 z m 661 1014 l 782 1014 l 851 1094 l 881 1014 l 971 1014 l 892 1131 l 824 1131 z "},"Ü":{"ha":714,"x_min":0,"x_max":0,"o":"m 436 -17 b 785 218 601 -17 706 43 l 1128 972 l 826 972 l 519 297 b 472 235 499 250 486 235 b 449 257 458 235 449 243 b 468 324 449 271 454 293 l 764 972 l 465 972 l 224 443 b 161 224 178 342 161 275 b 436 -17 161 86 253 -17 z m 540 1014 l 776 1014 l 806 1079 l 569 1079 z m 832 1014 l 1068 1014 l 1097 1079 l 861 1079 z "},"Ù":{"ha":658,"x_min":0,"x_max":0,"o":"m 439 -18 b 788 217 604 -18 708 42 l 1131 971 l 829 971 l 522 296 b 475 233 501 249 489 233 b 451 256 461 233 451 242 b 471 322 451 269 457 292 l 767 971 l 468 971 l 226 442 b 164 222 181 340 164 274 b 439 -18 164 85 256 -18 z m 703 1113 l 768 996 l 831 996 l 813 1113 z "},"V":{"ha":714,"x_min":0,"x_max":0,"o":"m 178 14 l 399 958 l 678 958 l 489 347 l 522 347 l 875 958 l 1160 958 l 535 14 z m 160 0 l 542 0 l 1186 972 l 867 972 l 514 361 l 508 361 l 697 972 l 388 972 z m 365 651 b 393 701 367 671 386 701 b 403 661 397 701 403 681 b 381 632 403 647 396 632 b 365 651 369 632 365 639 z m 399 728 b 399 769 392 728 392 740 l 429 896 b 538 917 433 915 460 917 b 622 914 596 917 603 915 b 556 878 618 890 590 883 b 424 760 483 865 468 853 b 399 728 408 728 399 728 z m 467 282 b 504 306 465 290 482 296 b 557 343 538 322 549 343 b 564 332 563 343 564 339 b 492 268 564 299 542 268 b 467 282 479 268 467 274 z m 833 803 l 890 893 b 1001 917 903 913 936 917 b 1076 910 1036 917 1063 914 b 1040 890 1072 900 1064 894 b 854 796 925 871 913 861 b 833 803 828 767 807 761 z "},"W":{"ha":1013,"x_min":0,"x_max":0,"o":"m 92 14 l 444 958 l 703 958 l 426 367 l 463 367 l 856 958 l 1035 958 l 876 364 l 908 364 l 1183 958 l 1440 958 l 947 14 l 596 14 l 757 519 l 726 519 l 442 14 z m 72 0 l 450 0 l 735 506 l 738 506 l 576 0 l 956 0 l 1464 972 l 1175 972 l 900 378 l 894 378 l 1053 972 l 849 972 l 456 381 l 449 381 l 725 972 l 435 972 z m 368 651 b 403 701 372 671 396 701 b 407 661 407 701 410 681 b 381 632 404 647 396 632 b 368 651 369 632 365 639 z m 411 282 b 449 306 410 290 426 296 b 501 343 482 322 493 343 b 508 332 507 343 508 339 b 436 268 508 299 486 268 b 411 282 424 268 411 274 z m 411 728 b 418 769 404 728 407 740 l 465 896 b 554 917 472 915 499 917 b 635 910 601 917 615 914 b 572 878 628 886 615 885 b 442 760 515 868 499 853 b 411 728 421 728 411 728 z m 815 822 l 863 893 b 928 917 875 913 896 917 b 981 913 949 917 967 915 b 943 888 976 903 969 894 b 836 815 904 878 883 865 b 815 822 808 786 788 781 z m 878 288 b 892 306 878 293 881 299 b 944 343 924 326 936 343 b 951 332 950 343 951 339 b 901 274 951 286 922 272 b 878 288 889 275 879 281 z m 1157 803 l 1201 893 b 1289 917 1211 913 1243 917 b 1368 911 1317 917 1354 915 b 1335 888 1365 901 1358 890 b 1179 796 1253 878 1229 861 b 1157 803 1156 767 1136 761 z "},"Ẃ":{"ha":1011,"x_min":0,"x_max":0,"o":"m 75 0 l 453 0 l 738 506 l 579 0 l 958 0 l 1467 972 l 1178 972 l 897 378 l 1056 972 l 851 972 l 451 381 l 728 972 l 438 972 z m 925 996 l 988 996 l 1117 1113 l 1007 1113 z "},"Ŵ":{"ha":981,"x_min":0,"x_max":0,"o":"m 56 0 l 433 0 l 718 506 l 560 0 l 939 0 l 1447 972 l 1158 972 l 878 378 l 1036 972 l 832 972 l 432 381 l 708 972 l 418 972 z m 793 1014 l 914 1014 l 983 1094 l 1013 1014 l 1103 1014 l 1024 1131 l 956 1131 z "},"Ẅ":{"ha":981,"x_min":0,"x_max":0,"o":"m 56 0 l 433 0 l 718 506 l 560 0 l 939 0 l 1447 972 l 1158 972 l 878 378 l 1036 972 l 832 972 l 432 381 l 708 972 l 418 972 z m 683 1014 l 919 1014 l 949 1079 l 713 1079 z m 975 1014 l 1211 1014 l 1240 1079 l 1004 1079 z "},"Ẁ":{"ha":981,"x_min":0,"x_max":0,"o":"m 56 0 l 433 0 l 718 506 l 560 0 l 939 0 l 1447 972 l 1158 972 l 878 378 l 1036 972 l 832 972 l 432 381 l 708 972 l 418 972 z m 843 1113 l 908 996 l 971 996 l 953 1113 z "},"X":{"ha":688,"x_min":0,"x_max":0,"o":"m 24 14 l 344 490 l 449 958 l 714 958 l 585 543 l 617 543 l 857 958 l 1124 958 l 803 482 l 699 14 l 433 14 l 565 429 l 533 429 l 290 14 z m -3 0 l 299 0 l 542 415 l 546 415 l 414 0 l 710 0 l 815 476 l 1150 972 l 849 972 l 608 557 l 604 557 l 733 972 l 438 972 l 332 496 z m 417 651 b 443 701 418 671 436 701 b 454 661 447 701 454 681 b 432 632 454 647 447 632 b 417 651 421 632 417 639 z m 449 728 b 449 769 442 728 442 740 l 476 896 b 585 917 481 915 507 917 b 654 914 643 917 635 915 b 603 878 650 890 626 882 b 474 760 531 865 517 853 b 449 728 458 728 449 728 z m 578 485 b 615 508 576 493 593 499 b 668 546 649 525 660 546 b 675 535 674 546 675 542 b 603 471 675 501 653 471 b 578 485 590 471 578 476 z m 813 803 l 868 893 b 958 917 881 913 913 917 b 1036 911 986 917 1024 915 b 1000 888 1033 901 1025 890 b 833 796 918 878 892 861 b 813 803 807 767 786 761 z "},"Y":{"ha":675,"x_min":0,"x_max":0,"o":"m 201 14 l 303 236 l 388 958 l 667 958 l 556 517 l 586 517 l 867 958 l 1144 958 l 561 215 l 471 14 z m 179 0 l 479 0 l 574 208 l 1174 972 l 860 972 l 579 531 l 574 531 l 685 972 l 375 972 l 289 240 z m 386 651 b 408 701 386 671 401 701 b 424 661 413 701 421 681 b 403 632 424 647 418 632 b 386 651 392 632 388 639 z m 408 769 l 425 896 b 531 917 428 915 453 917 b 601 914 589 917 582 915 b 553 878 599 890 576 882 b 433 760 482 865 469 853 b 411 728 421 728 411 728 b 408 769 404 728 404 740 z m 543 451 b 578 465 543 461 549 465 b 654 522 603 465 635 522 b 658 514 658 522 658 518 b 575 418 658 499 613 418 b 543 451 556 418 543 440 z m 818 803 l 874 893 b 964 917 886 913 918 917 b 1042 911 992 917 1029 915 b 1006 888 1039 901 1031 890 b 839 796 924 878 897 861 b 818 803 813 767 792 761 z "},"Ý":{"ha":675,"x_min":0,"x_max":0,"o":"m 179 0 l 479 0 l 574 208 l 1174 972 l 860 972 l 574 531 l 685 972 l 375 972 l 289 240 z m 729 996 l 792 996 l 921 1113 l 811 1113 z "},"Ŷ":{"ha":688,"x_min":0,"x_max":0,"o":"m 192 0 l 492 0 l 586 208 l 1186 972 l 872 972 l 586 531 l 697 972 l 388 972 l 301 240 z m 636 1014 l 757 1014 l 826 1094 l 856 1014 l 946 1014 l 867 1131 l 799 1131 z "},"Ÿ":{"ha":639,"x_min":0,"x_max":0,"o":"m 124 0 l 424 0 l 518 208 l 1118 972 l 804 972 l 518 531 l 629 972 l 319 972 l 233 240 z m 454 1014 l 690 1014 l 719 1079 l 483 1079 z m 746 1014 l 982 1014 l 1011 1079 l 775 1079 z "},"Ỳ":{"ha":688,"x_min":0,"x_max":0,"o":"m 192 0 l 492 0 l 586 208 l 1186 972 l 872 972 l 586 531 l 697 972 l 388 972 l 301 240 z m 696 1113 l 761 996 l 824 996 l 806 1113 z "},"Z":{"ha":614,"x_min":0,"x_max":0,"o":"m 47 14 l 544 714 l 343 714 l 453 958 l 1013 958 l 515 258 l 717 258 l 607 14 z m 21 0 l 615 0 l 739 272 l 542 272 l 1039 972 l 444 972 l 321 700 l 518 700 z m 407 756 l 465 881 b 578 917 478 907 493 917 b 700 903 658 917 700 914 b 624 879 692 893 661 886 b 450 788 526 861 492 842 b 407 756 429 760 417 756 z m 481 207 b 560 217 482 214 511 217 b 646 207 604 217 650 214 b 510 160 632 186 574 160 b 481 207 483 160 461 169 z m 721 903 b 775 917 721 907 757 917 b 796 906 790 917 796 913 b 765 886 796 893 785 886 b 721 903 750 886 719 899 z "},"Ź":{"ha":614,"x_min":0,"x_max":0,"o":"m 21 0 l 615 0 l 739 272 l 542 272 l 1039 972 l 444 972 l 321 700 l 518 700 z m 681 996 l 743 996 l 872 1113 l 763 1113 z "},"Ž":{"ha":614,"x_min":0,"x_max":0,"o":"m 21 0 l 615 0 l 739 272 l 542 272 l 1039 972 l 444 972 l 321 700 l 518 700 z m 629 1113 l 708 996 l 776 996 l 939 1113 l 826 1113 l 754 1038 l 728 1113 z "},"Æ":{"ha":1010,"x_min":0,"x_max":0,"o":"m -50 0 l 315 0 l 392 125 l 494 125 l 438 0 l 989 1 l 1113 274 l 844 274 l 882 354 l 1101 354 l 1226 631 l 1008 631 l 1040 697 l 1310 697 l 1435 974 l 588 972 z m 528 374 l 621 518 l 757 735 l 771 735 l 599 374 z "},"Ĳ":{"ha":821,"x_min":0,"x_max":0,"o":"m 46 14 l 475 958 l 744 958 l 315 14 z m 24 0 l 324 0 l 767 972 l 467 972 z m 371 643 l 486 886 b 596 917 496 910 513 917 b 682 913 635 917 661 915 b 614 881 674 896 660 890 b 413 676 519 861 519 850 b 371 643 401 658 388 643 z m 443 0 l 474 0 b 899 224 751 0 842 100 l 1243 972 l 943 972 l 649 336 b 458 272 619 274 554 272 z m 458 14 l 471 258 b 661 331 561 258 629 263 l 951 958 l 1221 958 l 886 229 b 474 14 831 108 746 14 z m 594 214 b 632 238 593 222 610 228 b 685 275 665 254 676 275 b 692 264 690 275 692 271 b 619 200 692 231 669 200 b 594 214 607 200 594 206 z m 850 643 l 965 886 b 1075 917 976 910 992 917 b 1161 913 1114 917 1140 915 b 1093 881 1153 896 1139 890 b 892 676 999 861 999 850 b 850 643 881 658 867 643 z "},"Œ":{"ha":1047,"x_min":0,"x_max":0,"o":"m 403 0 l 1017 0 l 1140 272 l 872 272 l 910 353 l 1129 353 l 1254 629 l 1036 629 l 1068 696 l 1338 696 l 1463 972 l 899 972 b 763 975 885 974 778 975 b 278 588 517 975 399 828 b 171 249 201 439 174 333 b 172 224 171 240 172 232 b 403 0 178 83 256 0 z m 468 272 b 556 503 468 285 475 343 b 739 725 647 689 669 725 l 778 725 l 551 229 l 517 229 b 468 272 478 229 468 238 z "},"a":{"ha":707,"x_min":0,"x_max":0,"o":"m 219 0 b 228 450 104 0 81 128 b 583 847 374 771 463 847 b 742 757 646 847 683 824 l 775 833 l 1044 833 l 672 14 l 442 14 l 490 203 l 463 203 b 219 0 374 76 313 0 z m 215 456 b 219 -14 67 129 93 -14 b 469 189 318 -14 383 65 l 472 189 l 424 0 l 681 0 l 1067 847 l 767 847 l 738 782 b 583 861 686 839 644 861 b 215 456 457 861 363 779 z m 374 643 b 583 806 436 749 485 806 b 583 756 658 806 651 756 b 422 676 521 756 479 742 b 374 643 407 658 396 643 z m 456 221 b 578 404 492 221 511 263 b 625 626 656 569 678 626 b 486 424 599 626 569 615 b 456 221 422 282 404 221 z m 456 235 b 499 418 422 235 439 285 b 625 613 579 601 606 613 b 565 410 658 613 639 567 b 456 235 499 269 482 235 z m 529 224 b 553 261 529 228 543 243 b 576 299 564 281 571 299 b 586 276 581 299 586 294 b 539 219 586 254 569 219 b 529 224 532 219 529 221 z m 800 786 b 908 794 803 792 849 796 b 976 786 929 794 979 792 b 853 757 969 772 907 756 b 800 786 819 757 792 765 z "},"á":{"ha":707,"x_min":0,"x_max":0,"o":"m 219 -14 b 475 203 318 -14 383 65 l 424 0 l 681 0 l 1067 847 l 767 847 l 738 782 b 583 861 686 839 644 861 b 215 456 457 861 363 779 b 219 -14 67 129 93 -14 z m 456 235 b 499 418 422 235 439 285 b 625 613 579 601 606 613 b 565 410 658 613 639 567 b 456 235 499 269 482 235 z m 701 882 l 764 882 l 893 999 l 783 999 z "},"â":{"ha":692,"x_min":0,"x_max":0,"o":"m 210 -14 b 465 203 308 -14 374 65 l 414 0 l 671 0 l 1057 847 l 757 847 l 728 782 b 574 861 676 839 635 861 b 206 456 447 861 353 779 b 210 -14 57 129 83 -14 z m 446 235 b 489 418 413 235 429 285 b 615 613 569 601 596 613 b 556 410 649 613 629 567 b 446 235 489 269 472 235 z m 622 889 l 743 889 l 813 969 l 842 889 l 932 889 l 853 1006 l 785 1006 z "},"ä":{"ha":692,"x_min":0,"x_max":0,"o":"m 210 -14 b 465 203 308 -14 374 65 l 414 0 l 671 0 l 1057 847 l 757 847 l 728 782 b 574 861 676 839 635 861 b 206 456 447 861 353 779 b 210 -14 57 129 83 -14 z m 446 235 b 489 418 413 235 429 285 b 615 613 569 601 596 613 b 556 410 649 613 629 567 b 446 235 489 269 472 235 z m 507 889 l 743 889 l 772 954 l 536 954 z m 799 889 l 1035 889 l 1064 954 l 828 954 z "},"à":{"ha":692,"x_min":0,"x_max":0,"o":"m 210 -14 b 465 203 308 -14 374 65 l 414 0 l 671 0 l 1057 847 l 757 847 l 728 782 b 574 861 676 839 635 861 b 206 456 447 861 353 779 b 210 -14 57 129 83 -14 z m 446 235 b 489 418 413 235 429 285 b 615 613 569 601 596 613 b 556 410 649 613 629 567 b 446 235 489 269 472 235 z m 700 1006 l 765 889 l 828 889 l 810 1006 z "},"å":{"ha":692,"x_min":0,"x_max":0,"o":"m 210 -14 b 465 203 308 -14 374 65 l 414 0 l 671 0 l 1057 847 l 757 847 l 728 782 b 574 861 676 839 635 861 b 206 456 447 861 353 779 b 210 -14 57 129 83 -14 z m 446 235 b 489 418 413 235 429 285 b 615 613 569 601 596 613 b 556 410 649 613 629 567 b 446 235 489 269 472 235 z m 658 943 b 776 885 658 904 701 885 b 906 951 840 885 904 900 b 797 1013 907 993 868 1013 b 658 943 733 1014 658 999 z m 697 944 b 797 976 697 969 736 976 b 868 953 851 976 868 967 b 776 921 868 932 835 921 b 697 944 717 921 697 929 z "},"ã":{"ha":692,"x_min":0,"x_max":0,"o":"m 210 -14 b 465 203 308 -14 374 65 l 414 0 l 671 0 l 1057 847 l 757 847 l 728 782 b 574 861 676 839 635 861 b 206 456 447 861 353 779 b 210 -14 57 129 83 -14 z m 446 235 b 489 418 413 235 429 285 b 615 613 569 601 596 613 b 556 410 649 613 629 567 b 446 235 489 269 472 235 z m 625 889 l 699 889 l 739 957 l 763 917 b 817 889 772 900 788 889 b 889 926 850 889 868 900 l 951 1006 l 878 1006 l 831 929 l 806 971 b 757 1006 790 996 779 1006 b 689 969 729 1006 711 999 z "},"b":{"ha":708,"x_min":0,"x_max":0,"o":"m 513 0 b 375 140 443 0 410 44 l 315 14 l 46 14 l 475 958 l 744 958 l 603 657 l 635 657 b 871 847 718 778 779 847 b 863 397 986 847 1010 719 b 513 0 708 60 615 0 z m 24 0 l 324 0 l 374 106 b 513 -14 406 28 444 -14 b 875 392 619 -14 719 50 b 871 861 1024 718 997 861 b 628 671 775 861 710 789 l 625 671 l 767 972 l 467 972 z m 375 643 l 486 886 b 596 917 497 910 513 917 b 678 913 635 917 657 915 b 614 881 669 896 660 890 b 417 676 519 861 524 850 b 375 643 406 658 392 643 z m 413 229 b 457 219 429 222 450 219 b 592 392 504 219 524 242 b 625 628 685 596 668 628 b 572 579 603 628 586 608 z m 432 238 l 585 574 b 625 614 597 600 610 614 b 579 397 654 614 665 588 b 457 233 513 251 496 233 b 432 238 453 233 443 235 z m 478 165 b 515 189 476 174 493 179 b 568 226 549 206 560 226 b 575 215 574 226 575 222 b 503 151 575 182 553 151 b 478 165 490 151 478 157 z m 742 728 b 881 804 788 781 826 804 b 742 728 921 804 761 693 z "},"c":{"ha":672,"x_min":0,"x_max":0,"o":"m 396 0 b 150 192 244 0 144 43 b 261 529 153 261 188 393 b 678 847 369 742 479 847 b 913 661 849 847 917 785 b 846 453 910 590 882 517 l 615 453 b 668 610 660 550 668 586 b 640 644 671 633 657 644 b 497 442 610 644 574 593 b 415 222 435 315 417 251 b 444 188 415 199 429 188 b 576 372 471 188 494 211 l 811 372 b 396 0 728 158 617 0 z m 136 192 b 396 -14 131 33 242 -14 b 832 386 631 -14 747 161 l 568 386 b 444 201 485 221 463 201 b 429 222 438 201 429 207 b 510 436 431 249 447 310 b 640 631 585 586 619 631 b 654 611 651 631 656 624 b 593 439 654 588 646 550 l 854 439 b 926 661 893 506 924 585 b 678 861 931 790 854 861 b 249 536 474 861 358 750 b 136 192 175 399 139 264 z m 383 636 b 399 672 375 636 376 644 b 647 806 476 765 558 806 b 636 756 722 806 704 756 b 443 675 574 756 518 740 b 383 636 433 667 399 636 z m 497 163 b 521 193 496 169 511 182 b 557 226 542 219 547 226 b 565 215 563 226 565 222 b 513 151 565 182 546 151 b 497 163 506 151 497 154 z "},"ć":{"ha":672,"x_min":0,"x_max":0,"o":"m 396 -14 b 832 386 631 -14 747 161 l 568 386 b 444 201 485 221 463 201 b 429 222 438 201 429 207 b 510 436 431 249 447 310 b 640 631 585 586 619 631 b 654 611 651 631 656 624 b 593 439 654 588 646 550 l 854 439 b 926 661 893 506 924 585 b 678 861 931 789 854 861 b 249 536 474 861 358 750 b 136 192 175 399 139 264 b 396 -14 131 33 242 -14 z m 669 882 l 732 882 l 861 999 l 751 999 z "},"č":{"ha":672,"x_min":0,"x_max":0,"o":"m 396 -14 b 832 386 631 -14 747 161 l 568 386 b 444 201 485 221 463 201 b 429 222 438 201 429 207 b 510 436 431 249 447 310 b 640 631 585 586 619 631 b 654 611 651 631 656 624 b 593 439 654 588 646 550 l 854 439 b 926 661 893 506 924 585 b 678 861 931 789 854 861 b 249 536 474 861 358 750 b 136 192 175 399 139 264 b 396 -14 131 33 242 -14 z m 600 999 l 679 882 l 747 882 l 910 999 l 797 999 l 725 924 l 699 999 z "},"ç":{"ha":628,"x_min":0,"x_max":0,"o":"m 371 -14 b 807 386 606 -14 722 161 l 543 386 b 419 201 460 221 438 201 b 404 222 413 201 404 207 b 485 436 406 249 422 310 b 615 631 560 586 594 631 b 629 611 626 631 631 624 b 568 439 629 588 621 550 l 829 439 b 901 661 868 506 899 585 b 653 861 906 789 829 861 b 224 536 449 861 333 750 b 111 192 150 399 114 264 b 271 -6 107 71 171 14 l 232 -85 l 278 -97 b 333 -85 297 -87 314 -85 b 307 -137 376 -85 367 -137 b 206 -104 265 -137 231 -121 l 178 -168 b 286 -193 224 -189 250 -193 b 418 -99 376 -193 418 -150 b 347 -37 418 -51 381 -37 b 289 -49 325 -37 306 -42 l 308 -11 b 371 -14 329 -12 350 -14 z "},"d":{"ha":700,"x_min":0,"x_max":0,"o":"m 213 0 b 221 450 97 0 74 128 b 576 847 367 771 456 847 b 733 754 642 847 693 819 l 825 958 l 1094 958 l 665 14 l 435 14 l 486 200 l 457 200 b 213 0 367 76 306 0 z m 208 456 b 213 -14 60 129 86 -14 b 464 186 311 -14 376 65 l 468 186 l 417 0 l 674 0 l 1117 972 l 817 972 l 731 782 b 576 861 690 836 638 861 b 208 456 450 861 356 779 z m 374 643 b 583 806 436 749 485 806 b 583 756 658 806 651 756 b 417 676 521 756 474 742 b 374 643 401 658 390 643 z m 449 221 b 571 404 485 221 504 263 b 618 626 649 569 671 626 b 479 424 592 626 563 615 b 449 221 415 282 397 221 z m 449 235 b 492 418 415 235 432 285 b 618 613 572 601 599 613 b 558 410 651 613 632 567 b 449 235 492 269 475 235 z m 725 643 l 836 886 b 946 917 847 910 863 917 b 1028 913 985 917 1007 915 b 964 881 1019 896 1010 890 b 767 676 869 861 874 850 b 725 643 756 658 742 643 z "},"ð":{"ha":682,"x_min":0,"x_max":0,"o":"m 367 -14 b 806 311 563 -14 688 99 b 921 676 882 444 921 554 b 836 936 921 788 882 874 l 929 960 l 915 1029 l 785 996 b 732 1042 765 1015 747 1031 l 478 1042 l 469 1024 b 560 938 499 1000 531 971 l 478 917 l 492 847 l 608 878 b 642 818 621 857 633 838 b 222 536 467 818 339 749 b 113 231 147 404 118 303 b 367 -14 101 64 197 -14 z m 392 218 b 481 436 394 244 411 303 b 624 638 575 622 607 638 b 635 621 632 638 636 632 b 550 408 635 596 618 535 b 406 201 447 219 421 201 b 392 218 399 201 392 206 z "},"đ":{"ha":701,"x_min":0,"x_max":0,"o":"m 210 -14 b 465 203 308 -14 374 65 l 414 0 l 671 0 l 1051 835 l 1083 835 l 1117 908 l 1085 908 l 1114 972 l 814 972 l 785 908 l 744 908 l 713 840 l 754 840 l 728 782 b 574 861 688 836 635 861 b 206 456 447 861 353 779 b 210 -14 57 129 83 -14 z m 446 235 b 489 418 413 235 429 285 b 615 613 569 601 596 613 b 556 410 649 613 629 567 b 446 235 489 269 472 235 z "},"e":{"ha":676,"x_min":0,"x_max":0,"o":"m 400 0 b 167 228 250 0 161 69 b 265 529 169 299 194 397 b 690 847 375 743 488 847 b 917 663 844 847 921 778 b 843 444 914 589 879 503 l 497 444 b 414 222 428 301 415 254 b 446 188 414 200 429 188 b 567 369 475 188 506 219 l 807 369 b 400 0 707 119 596 0 z m 153 228 b 400 -14 147 63 246 -14 b 828 383 607 -14 725 118 l 557 383 b 446 201 496 229 467 201 b 428 222 438 201 428 206 b 506 431 429 251 440 294 l 851 431 b 931 663 889 490 928 583 b 690 861 935 783 850 861 b 253 536 482 861 364 751 b 153 228 182 403 156 300 z m 383 636 b 399 672 375 636 376 644 b 647 806 476 765 558 806 b 636 756 722 806 704 756 b 443 675 574 756 518 740 b 383 636 433 667 399 636 z m 497 163 b 521 193 496 169 511 182 b 557 226 542 219 547 226 b 565 215 563 226 565 222 b 513 151 565 182 546 151 b 497 163 506 151 497 154 z m 533 517 l 632 517 b 683 650 671 600 683 632 b 654 681 683 669 671 681 b 533 517 626 681 606 661 z m 556 531 b 654 667 618 653 636 667 b 669 650 663 667 669 661 b 624 531 669 635 658 607 z "},"é":{"ha":668,"x_min":0,"x_max":0,"o":"m 396 -14 b 824 383 603 -14 721 118 l 553 383 b 442 201 492 229 463 201 b 424 222 433 201 424 206 b 501 431 425 251 436 294 l 847 431 b 926 663 885 490 924 583 b 686 861 931 783 846 861 b 249 536 478 861 360 751 b 149 228 178 403 151 300 b 396 -14 143 63 242 -14 z m 551 531 b 650 667 614 653 632 667 b 665 650 658 667 665 661 b 619 531 665 635 654 607 z m 663 882 l 725 882 l 854 999 l 744 999 z "},"ě":{"ha":668,"x_min":0,"x_max":0,"o":"m 396 -14 b 824 383 603 -14 721 118 l 553 383 b 442 201 492 229 463 201 b 424 222 433 201 424 206 b 501 431 425 251 436 294 l 847 431 b 926 663 885 490 924 583 b 686 861 931 783 846 861 b 249 536 478 861 360 751 b 149 228 178 403 151 300 b 396 -14 143 63 242 -14 z m 551 531 b 650 667 614 653 632 667 b 665 650 658 667 665 661 b 619 531 665 635 654 607 z m 607 999 l 686 882 l 754 882 l 917 999 l 804 999 l 732 924 l 706 999 z "},"ê":{"ha":624,"x_min":0,"x_max":0,"o":"m 371 -14 b 799 383 578 -14 696 118 l 528 383 b 417 201 467 229 438 201 b 399 222 408 201 399 206 b 476 431 400 251 411 294 l 822 431 b 901 663 860 490 899 583 b 661 861 906 783 821 861 b 224 536 453 861 335 751 b 124 228 153 403 126 300 b 371 -14 118 63 217 -14 z m 526 531 b 625 667 589 653 607 667 b 640 650 633 667 640 661 b 594 531 640 635 629 607 z m 539 889 l 660 889 l 729 969 l 758 889 l 849 889 l 769 1006 l 701 1006 z "},"ë":{"ha":628,"x_min":0,"x_max":0,"o":"m 369 -14 b 797 383 576 -14 694 118 l 526 383 b 415 201 465 229 436 201 b 397 222 407 201 397 206 b 475 431 399 251 410 294 l 821 431 b 900 663 858 490 897 583 b 660 861 904 783 819 861 b 222 536 451 861 333 751 b 122 228 151 403 125 300 b 369 -14 117 63 215 -14 z m 397 889 l 633 889 l 663 954 l 426 954 z m 525 531 b 624 667 588 653 606 667 b 639 650 632 667 639 661 b 593 531 639 635 628 607 z m 689 889 l 925 889 l 954 954 l 718 954 z "},"è":{"ha":624,"x_min":0,"x_max":0,"o":"m 371 -14 b 799 383 578 -14 696 118 l 528 383 b 417 201 467 229 438 201 b 399 222 408 201 399 206 b 476 431 400 251 411 294 l 822 431 b 901 663 860 490 899 583 b 661 861 906 783 821 861 b 224 536 453 861 335 751 b 124 228 153 403 126 300 b 371 -14 118 63 217 -14 z m 526 531 b 625 667 589 653 607 667 b 640 650 633 667 640 661 b 594 531 640 635 629 607 z m 589 1006 l 654 889 l 717 889 l 699 1006 z "},"f":{"ha":450,"x_min":0,"x_max":0,"o":"m 72 14 l 335 589 l 290 589 l 400 833 l 446 833 l 453 851 b 726 1035 503 969 578 1035 b 874 1013 785 1035 836 1025 l 819 896 b 786 903 808 901 796 903 b 725 856 754 903 739 885 l 714 833 l 792 833 l 682 589 l 604 589 l 342 14 z m 50 0 l 350 0 l 613 575 l 690 575 l 814 847 l 736 847 l 738 850 b 786 889 750 876 761 889 b 826 878 799 889 813 886 l 892 1019 b 726 1049 854 1036 793 1049 b 440 857 572 1049 492 978 l 436 847 l 392 847 l 268 575 l 313 575 z m 361 643 l 428 792 l 444 792 b 488 825 465 792 475 799 l 503 858 b 675 990 531 919 592 990 b 714 969 703 990 714 982 b 646 928 714 954 694 938 b 500 775 561 910 544 872 b 432 733 481 733 453 765 b 403 675 422 718 414 696 b 361 643 389 649 382 643 z m 675 758 b 694 792 644 758 654 792 l 728 792 b 675 758 715 775 697 758 z "},"g":{"ha":688,"x_min":0,"x_max":0,"o":"m 343 -94 b 29 -32 199 -94 108 -72 l 122 171 b 335 119 185 139 257 119 b 475 204 406 119 453 154 l 526 321 l 494 321 b 314 196 426 231 382 196 b 268 557 176 196 165 346 b 560 847 364 772 429 847 b 726 753 625 847 672 829 l 763 833 l 1031 833 l 753 221 b 343 -94 651 -1 546 -94 z m 11 -39 b 343 -108 94 -83 190 -108 b 765 215 551 -108 663 -10 l 1053 847 l 753 847 l 724 781 b 560 861 672 844 622 861 b 256 563 422 861 351 779 b 314 182 151 349 164 182 b 501 307 385 182 435 219 l 506 307 l 463 210 b 335 133 442 164 400 133 b 115 190 253 133 179 154 z m 346 643 b 556 806 408 749 457 806 b 556 756 631 806 624 756 b 394 676 493 756 451 742 b 346 643 379 658 368 643 z m 388 82 b 425 106 386 90 403 96 b 478 143 458 122 469 143 b 485 132 483 143 485 139 b 413 68 485 99 463 68 b 388 82 400 68 388 74 z m 476 381 b 508 346 476 360 488 346 b 572 419 535 346 554 378 b 640 592 640 568 640 578 b 607 624 640 610 631 624 b 542 564 581 624 564 601 b 476 381 496 472 476 404 z m 490 381 b 554 557 490 403 508 467 b 607 610 575 593 588 610 b 626 592 619 610 626 604 b 560 425 626 579 626 569 b 508 360 544 390 528 360 b 490 381 494 360 490 369 z m 785 786 b 893 794 788 792 833 796 b 961 786 914 794 964 792 b 838 757 954 772 892 756 b 785 786 804 757 776 765 z "},"h":{"ha":711,"x_min":0,"x_max":0,"o":"m 43 14 l 472 958 l 742 958 l 601 654 l 632 654 b 881 846 717 776 778 846 b 957 631 983 846 1008 746 l 676 14 l 407 14 l 613 467 b 663 594 653 556 663 579 b 629 628 663 614 653 628 b 567 571 603 628 582 604 l 313 14 z m 21 0 l 321 0 l 579 565 b 629 614 593 596 610 614 b 649 594 642 614 649 608 b 600 472 649 582 640 561 l 385 0 l 685 0 l 969 625 b 881 860 1024 744 994 860 b 625 668 774 860 708 788 l 624 668 l 764 972 l 464 972 z m 375 643 l 486 886 b 596 917 497 910 513 917 b 678 913 635 917 657 915 b 614 881 669 896 660 890 b 417 676 519 861 524 850 b 375 643 406 658 392 643 z m 742 728 b 881 804 788 781 826 804 b 742 728 921 804 761 693 z "},"i":{"ha":347,"x_min":0,"x_max":0,"o":"m 43 14 l 415 833 l 685 833 l 313 14 z m 21 0 l 321 0 l 707 847 l 407 847 z m 375 643 l 431 761 b 540 792 442 785 457 792 b 622 788 579 792 601 790 b 558 756 614 771 604 765 b 417 676 464 736 457 731 b 375 643 403 658 392 643 z m 426 889 l 726 889 l 764 972 l 464 972 z m 447 903 l 472 958 l 743 958 l 718 903 z m 500 933 b 575 944 506 943 553 944 b 644 932 619 944 649 942 b 563 918 639 921 607 918 b 500 933 517 918 493 921 z "},"í":{"ha":347,"x_min":0,"x_max":0,"o":"m 21 0 l 321 0 l 707 847 l 407 847 z m 524 882 l 586 882 l 715 999 l 606 999 z "},"î":{"ha":356,"x_min":0,"x_max":0,"o":"m 21 0 l 321 0 l 707 847 l 407 847 z m 414 889 l 535 889 l 604 969 l 633 889 l 724 889 l 644 1006 l 576 1006 z "},"ï":{"ha":569,"x_min":0,"x_max":0,"o":"m 135 0 l 435 0 l 821 847 l 521 847 z m 426 889 l 663 889 l 692 954 l 456 954 z m 718 889 l 954 889 l 983 954 l 747 954 z "},"ì":{"ha":314,"x_min":0,"x_max":0,"o":"m 21 0 l 321 0 l 707 847 l 407 847 z m 475 1006 l 540 889 l 603 889 l 585 1006 z "},"j":{"ha":368,"x_min":0,"x_max":0,"o":"m 44 147 b 158 213 103 149 136 164 l 442 833 l 711 833 l 383 115 b 38 -93 326 -7 257 -93 l 22 -93 z m 7 -107 l 38 -107 b 396 110 264 -107 339 -14 l 733 847 l 433 847 l 146 218 b 32 161 125 172 94 161 z m 90 103 b 128 126 89 111 106 117 b 181 164 161 143 172 164 b 188 153 186 164 188 160 b 115 89 188 119 165 89 b 90 103 103 89 90 94 z m 401 643 l 457 761 b 567 792 468 785 483 792 b 649 788 606 792 628 790 b 585 756 640 771 631 765 b 443 676 490 736 483 731 b 401 643 429 658 418 643 z m 453 889 l 753 889 l 790 972 l 490 972 z m 474 903 l 499 958 l 769 958 l 744 903 z m 531 933 b 606 944 536 943 583 944 b 675 932 650 944 679 942 b 593 918 669 921 638 918 b 531 933 547 918 524 921 z "},"ȷ":{"ha":342,"x_min":0,"x_max":0,"o":"m 6 161 l -19 -107 l 11 -107 b 369 110 238 -107 313 -14 l 707 846 l 407 846 l 119 218 b 6 161 99 172 68 161 z "},"k":{"ha":706,"x_min":0,"x_max":0,"o":"m 47 14 l 476 958 l 746 958 l 538 500 l 571 500 l 811 833 l 1108 833 l 743 400 l 719 14 l 450 14 l 519 397 l 492 397 l 317 14 z m 25 0 l 325 0 l 500 383 l 503 383 l 433 0 l 732 0 l 757 394 l 1138 847 l 804 847 l 564 514 l 560 514 l 768 972 l 468 972 z m 381 643 l 492 886 b 601 917 503 910 518 917 b 683 913 640 917 663 915 b 619 881 675 896 665 890 b 422 676 525 861 529 850 b 381 643 411 658 397 643 z m 750 679 l 817 769 b 931 793 832 789 865 793 b 1006 786 965 793 990 790 b 967 767 1000 781 990 771 b 769 672 850 747 835 738 b 750 679 740 643 719 638 z "},"l":{"ha":342,"x_min":0,"x_max":0,"o":"m 38 14 l 467 958 l 736 958 l 307 14 z m 15 0 l 315 0 l 758 972 l 458 972 z m 374 646 b 411 704 374 661 403 704 b 381 635 419 704 408 635 b 374 646 374 635 372 639 z m 418 728 b 432 769 417 732 421 746 l 492 896 b 603 917 501 915 525 917 b 678 913 635 917 657 915 b 614 881 669 896 660 890 b 454 760 501 857 521 853 b 418 728 428 724 419 724 z "},"m":{"ha":1072,"x_min":0,"x_max":0,"o":"m 43 14 l 415 833 l 644 833 l 596 653 l 625 653 b 881 846 711 771 774 846 b 963 651 976 846 1004 760 l 994 651 b 1244 846 1071 764 1133 846 b 1344 751 1306 846 1342 813 b 1307 601 1346 707 1335 661 l 1042 14 l 771 14 b 1025 594 1008 538 1025 571 b 989 626 1025 613 1015 626 b 929 569 964 626 946 606 l 676 14 l 407 14 b 663 596 644 538 663 572 b 626 628 663 614 653 628 b 565 569 601 628 582 608 l 313 14 z m 21 0 l 321 0 l 578 564 b 626 614 593 599 608 614 b 649 596 642 614 649 608 b 385 0 649 575 632 543 l 685 0 l 942 564 b 989 613 957 597 971 613 b 1011 594 1004 613 1011 607 b 749 0 1011 574 996 543 l 1050 0 l 1319 596 b 1358 751 1347 657 1360 706 b 1244 860 1356 818 1311 860 b 988 665 1129 860 1063 775 l 983 665 b 881 860 1019 760 986 860 b 618 667 769 860 703 782 l 614 667 l 663 847 l 407 847 z m 375 643 l 431 761 b 517 792 442 785 450 792 b 592 788 549 792 571 790 b 524 749 583 771 576 761 b 417 676 464 735 457 731 b 375 643 403 658 392 643 z m 703 675 b 879 804 758 760 806 804 b 888 756 944 804 956 756 b 740 692 831 756 789 746 b 703 675 729 679 718 667 z m 1097 708 b 1100 726 1090 708 1089 715 b 1240 804 1147 774 1183 804 b 1249 756 1306 804 1317 756 b 1097 708 1158 756 1117 708 z "},"n":{"ha":713,"x_min":0,"x_max":0,"o":"m 44 14 l 417 833 l 646 833 l 597 651 l 625 651 b 882 846 713 771 775 846 b 958 631 985 846 1010 746 l 678 14 l 408 14 b 664 596 646 538 664 572 b 628 628 664 614 654 628 b 567 569 601 628 582 604 l 314 14 z m 22 0 l 322 0 l 579 564 b 628 614 593 596 608 614 b 650 596 643 614 650 608 b 386 0 650 575 633 543 l 686 0 l 971 625 b 882 860 1025 744 996 860 b 618 665 771 860 704 782 l 615 665 l 664 847 l 408 847 z m 375 643 l 431 761 b 517 792 442 785 450 792 b 592 788 549 792 571 790 b 524 749 583 771 576 761 b 417 676 464 735 457 731 b 375 643 403 658 392 643 z m 732 708 b 735 726 725 708 724 715 b 875 804 782 774 818 804 b 883 756 940 804 951 756 b 732 708 793 756 751 708 z "},"ń":{"ha":713,"x_min":0,"x_max":0,"o":"m 22 0 l 322 0 l 579 564 b 628 614 593 596 608 614 b 650 596 643 614 650 608 b 386 0 650 575 633 543 l 686 0 l 971 625 b 882 860 1025 744 996 860 b 613 644 771 860 704 782 l 664 847 l 408 847 z m 700 882 l 763 882 l 892 999 l 782 999 z "},"ň":{"ha":713,"x_min":0,"x_max":0,"o":"m 22 0 l 322 0 l 579 564 b 628 614 593 596 608 614 b 650 596 643 614 650 608 b 386 0 650 575 633 543 l 686 0 l 971 625 b 882 860 1025 744 996 860 b 613 644 771 860 704 782 l 664 847 l 408 847 z m 626 999 l 706 882 l 774 882 l 936 999 l 824 999 l 751 924 l 725 999 z "},"ñ":{"ha":713,"x_min":0,"x_max":0,"o":"m 22 0 l 322 0 l 579 564 b 628 614 593 596 608 614 b 650 596 643 614 650 608 b 386 0 650 575 633 543 l 686 0 l 971 625 b 882 860 1025 744 996 860 b 613 644 771 860 704 782 l 664 847 l 408 847 z m 615 889 l 689 889 l 729 957 l 753 917 b 807 889 763 900 778 889 b 879 926 840 889 858 900 l 942 1006 l 868 1006 l 821 929 l 796 971 b 747 1006 781 996 769 1006 b 679 969 719 1006 701 999 z "},"o":{"ha":683,"x_min":0,"x_max":0,"o":"m 403 0 b 167 231 249 0 161 71 b 264 529 169 301 193 399 b 669 847 372 740 492 847 b 901 617 811 847 906 758 b 804 318 899 546 875 450 b 403 0 694 107 579 0 z m 153 231 b 403 -14 147 64 243 -14 b 817 311 585 -14 706 99 b 915 617 888 444 913 544 b 669 861 919 764 817 861 b 251 536 486 861 361 749 b 153 231 181 404 156 303 z m 379 643 b 635 803 463 754 553 803 b 676 779 663 803 676 793 b 619 751 676 765 658 753 b 428 660 543 749 492 719 b 379 643 414 649 400 638 z m 406 218 b 433 188 406 197 418 188 b 583 401 456 188 485 207 b 663 619 647 529 663 593 b 636 651 664 639 653 651 b 488 442 613 651 579 633 b 406 218 424 307 407 247 z m 419 218 b 500 436 421 244 436 303 b 636 638 589 621 619 638 b 649 621 644 638 650 632 b 571 408 649 596 635 535 b 433 201 475 219 449 201 b 419 218 426 201 419 206 z m 428 129 b 465 153 426 138 443 143 b 518 190 499 169 510 190 b 525 179 524 190 525 186 b 453 115 525 146 503 115 b 428 129 440 115 428 121 z "},"ó":{"ha":707,"x_min":0,"x_max":0,"o":"m 399 -14 b 838 311 594 -14 719 99 b 947 617 914 444 942 544 b 696 861 957 764 857 861 b 254 536 499 861 371 749 b 144 231 179 404 150 303 b 399 -14 133 64 229 -14 z m 424 218 b 513 436 426 244 443 303 b 656 638 607 621 639 638 b 667 621 664 638 668 632 b 582 408 667 596 650 535 b 438 201 479 219 453 201 b 424 218 431 201 424 206 z m 703 882 l 765 882 l 894 999 l 785 999 z "},"ô":{"ha":707,"x_min":0,"x_max":0,"o":"m 399 -14 b 838 311 594 -14 719 99 b 947 617 914 444 942 544 b 696 861 957 764 857 861 b 254 536 499 861 371 749 b 144 231 179 404 150 303 b 399 -14 133 64 229 -14 z m 424 218 b 513 436 426 244 443 303 b 656 638 607 621 639 638 b 667 621 664 638 668 632 b 582 408 667 596 650 535 b 438 201 479 219 453 201 b 424 218 431 201 424 206 z m 597 889 l 718 889 l 788 969 l 817 889 l 907 889 l 828 1006 l 760 1006 z "},"ö":{"ha":707,"x_min":0,"x_max":0,"o":"m 399 -14 b 838 311 594 -14 719 99 b 947 617 914 444 942 544 b 696 861 957 764 857 861 b 254 536 499 861 371 749 b 144 231 179 404 150 303 b 399 -14 133 64 229 -14 z m 424 218 b 513 436 426 244 443 303 b 656 638 607 621 639 638 b 667 621 664 638 668 632 b 582 408 667 596 650 535 b 438 201 479 219 453 201 b 424 218 431 201 424 206 z m 454 889 l 690 889 l 719 954 l 483 954 z m 746 889 l 982 889 l 1011 954 l 775 954 z "},"ò":{"ha":707,"x_min":0,"x_max":0,"o":"m 399 -14 b 838 311 594 -14 719 99 b 947 617 914 444 942 544 b 696 861 957 764 857 861 b 254 536 499 861 371 749 b 144 231 179 404 150 303 b 399 -14 133 64 229 -14 z m 424 218 b 513 436 426 244 443 303 b 656 638 607 621 639 638 b 667 621 664 638 668 632 b 582 408 667 596 650 535 b 438 201 479 219 453 201 b 424 218 431 201 424 206 z m 647 1006 l 713 889 l 775 889 l 757 1006 z "},"ø":{"ha":683,"x_min":0,"x_max":0,"o":"m 78 -18 l 181 72 b 389 -14 221 14 293 -14 b 814 311 571 -14 696 99 b 924 617 890 444 918 544 b 914 704 926 649 921 678 l 1042 814 l 992 869 l 882 774 b 686 861 842 829 772 861 b 257 536 503 861 374 749 b 147 231 182 404 153 303 b 153 143 144 199 147 169 l 29 36 z m 414 218 b 435 290 415 232 421 254 l 574 410 l 572 408 b 428 201 467 221 443 201 b 414 218 421 201 414 206 z m 511 453 b 646 638 599 622 629 638 b 657 621 654 638 658 632 b 646 569 657 611 654 594 z "},"õ":{"ha":707,"x_min":0,"x_max":0,"o":"m 399 -14 b 838 311 594 -14 719 99 b 947 617 914 444 942 544 b 696 861 957 764 857 861 b 254 536 499 861 371 749 b 144 231 179 404 150 303 b 399 -14 133 64 229 -14 z m 424 218 b 513 436 426 244 443 303 b 656 638 607 621 639 638 b 667 621 664 638 668 632 b 582 408 667 596 650 535 b 438 201 479 219 453 201 b 424 218 431 201 424 206 z m 631 889 l 704 889 l 744 957 l 768 917 b 822 889 778 900 793 889 b 894 926 856 889 874 900 l 957 1006 l 883 1006 l 836 929 l 811 971 b 763 1006 796 996 785 1006 b 694 969 735 1006 717 999 z "},"p":{"ha":708,"x_min":0,"x_max":0,"o":"m 0 -82 l 415 833 l 646 833 l 596 651 l 625 651 b 868 847 713 771 775 847 b 860 397 983 847 1007 719 b 504 14 718 86 626 14 b 349 94 453 14 399 33 l 269 -82 z m -22 -96 l 278 -96 l 353 69 b 504 0 401 18 456 0 b 872 392 631 0 729 78 b 868 861 1021 718 994 861 b 618 665 769 861 704 782 l 614 665 l 664 847 l 407 847 z m 375 643 l 431 761 b 517 792 442 785 450 792 b 592 788 549 792 571 790 b 524 749 583 771 576 761 b 417 676 464 735 457 731 b 375 643 403 658 392 643 z m 453 156 b 490 179 451 164 468 169 b 543 217 524 196 535 217 b 550 206 549 217 550 213 b 478 142 550 172 528 142 b 453 156 465 142 453 147 z m 465 221 b 590 404 501 221 522 261 b 635 626 668 569 688 626 b 496 424 608 626 581 615 b 465 221 432 282 414 221 z m 465 235 b 508 418 432 235 449 285 b 635 613 590 601 615 613 b 578 410 668 613 651 567 b 465 235 511 269 492 235 z m 736 708 b 739 726 729 708 729 715 b 872 804 779 774 815 804 b 881 756 918 804 940 756 b 736 708 790 756 756 708 z "},"q":{"ha":718,"x_min":0,"x_max":0,"o":"m 365 -82 l 486 182 l 453 182 b 224 0 375 72 315 0 b 232 450 108 0 85 128 b 588 847 378 771 467 847 b 746 757 650 847 688 824 l 779 833 l 1049 833 l 633 -82 z m 219 456 b 224 -14 71 129 97 -14 b 460 168 321 -14 383 61 l 464 168 l 343 -96 l 642 -96 l 1071 847 l 771 847 l 742 782 b 588 861 690 839 649 861 b 219 456 461 861 367 779 z m 374 643 b 583 806 436 749 485 806 b 583 756 658 806 651 756 b 422 676 521 756 479 742 b 374 643 407 658 396 643 z m 460 221 b 582 404 496 221 515 263 b 629 626 660 569 682 626 b 490 424 603 626 574 615 b 460 221 426 282 408 221 z m 460 235 b 503 418 426 235 443 285 b 629 613 583 601 610 613 b 569 410 663 613 643 567 b 460 235 503 269 486 235 z m 529 224 b 553 261 529 228 543 243 b 576 299 564 281 571 299 b 586 276 581 299 586 294 b 539 219 586 254 569 219 b 529 224 532 219 529 221 z m 800 786 b 908 794 803 792 849 796 b 976 786 929 794 979 792 b 853 757 969 772 907 756 b 800 786 819 757 792 765 z "},"r":{"ha":479,"x_min":0,"x_max":0,"o":"m 43 14 l 415 833 l 593 833 l 547 656 l 575 656 b 825 833 672 799 733 833 l 831 833 l 682 507 b 629 513 663 510 646 513 b 468 356 557 513 519 468 l 313 14 z m 21 0 l 321 0 l 481 350 b 629 499 531 460 564 499 b 690 492 647 499 667 496 l 853 847 l 825 847 b 568 669 731 847 664 810 l 565 669 l 611 847 l 407 847 z m 375 643 l 431 761 b 490 792 442 785 468 792 b 539 789 522 792 529 790 b 511 754 538 782 532 761 b 417 676 474 742 453 725 b 375 643 403 658 392 643 z m 678 669 b 682 703 665 676 667 689 b 711 685 738 753 753 768 b 678 669 700 663 692 663 z "},"ŕ":{"ha":479,"x_min":0,"x_max":0,"o":"m 21 0 l 321 0 l 481 350 b 629 499 531 460 564 499 b 690 492 647 499 667 496 l 853 847 l 825 847 b 568 669 731 847 664 810 l 611 847 l 407 847 z m 603 882 l 665 882 l 794 999 l 685 999 z "},"ř":{"ha":479,"x_min":0,"x_max":0,"o":"m 21 0 l 321 0 l 481 350 b 629 499 531 460 564 499 b 690 492 647 499 667 496 l 853 847 l 825 847 b 568 669 731 847 664 810 l 611 847 l 407 847 z m 540 999 l 619 882 l 688 882 l 850 999 l 738 999 l 665 924 l 639 999 z "},"s":{"ha":539,"x_min":0,"x_max":0,"o":"m 294 1 b 47 54 189 1 115 21 l 168 286 b 317 242 215 260 274 242 b 397 299 356 242 393 254 b 331 413 397 335 365 361 b 286 551 300 456 285 503 b 631 847 292 719 440 847 b 861 797 729 847 801 826 l 749 576 b 601 618 704 601 661 618 b 525 563 574 618 525 604 b 592 458 524 539 553 507 b 650 300 636 401 650 363 b 294 1 638 106 496 1 z m 28 49 b 294 -12 101 10 181 -12 b 664 300 500 -12 651 99 b 603 467 664 365 649 408 b 539 563 564 515 538 544 b 601 604 539 593 576 604 b 754 557 664 604 707 586 l 879 803 b 631 861 817 836 739 861 b 272 551 435 861 278 726 b 319 404 271 501 288 450 b 383 299 356 351 383 328 b 317 256 381 265 353 256 b 163 306 272 256 210 276 z m 349 192 b 386 215 347 200 364 206 b 439 253 419 232 431 253 b 446 242 444 253 446 249 b 374 178 446 208 424 178 b 349 192 361 178 349 183 z m 349 643 b 597 801 394 753 515 801 b 638 779 625 801 638 793 b 581 751 638 765 619 753 b 383 661 486 747 433 724 b 349 643 372 647 358 638 z "},"ś":{"ha":529,"x_min":0,"x_max":0,"o":"m 299 -12 b 668 300 504 -12 656 99 b 607 467 668 365 653 408 b 543 563 568 515 542 544 b 619 604 543 593 581 604 b 758 557 668 604 711 586 l 883 803 b 635 861 821 836 743 861 b 276 551 439 861 282 726 b 324 404 275 501 292 450 b 388 299 360 351 388 328 b 321 256 385 265 357 256 b 167 306 276 256 214 276 l 32 49 b 299 -12 106 10 185 -12 z m 604 882 l 667 882 l 796 999 l 686 999 z "},"š":{"ha":526,"x_min":0,"x_max":0,"o":"m 592 882 l 660 882 l 822 999 l 710 999 l 638 924 l 611 999 l 513 999 z m 32 49 b 299 -12 106 10 185 -12 b 668 300 504 -12 656 99 b 607 467 668 365 653 408 b 543 563 568 515 542 544 b 619 604 543 593 581 604 b 758 557 668 604 711 586 l 883 803 b 635 861 821 836 743 861 b 276 551 439 861 282 726 b 324 404 275 501 292 450 b 388 299 360 351 388 328 b 321 256 385 265 357 256 b 167 306 276 256 214 276 z "},"t":{"ha":446,"x_min":0,"x_max":0,"o":"m 361 10 b 164 158 222 10 164 58 b 233 371 164 219 206 310 l 333 589 l 289 589 l 399 833 l 443 833 l 500 958 l 769 958 l 713 833 l 790 833 l 681 589 l 603 589 l 493 350 b 478 296 481 324 478 308 b 519 258 478 274 492 258 l 528 258 l 415 11 b 361 10 404 10 383 10 z m 150 158 b 361 -4 150 51 217 -4 b 425 0 388 -4 415 -4 l 550 275 b 519 272 538 272 529 272 b 492 296 501 272 492 279 b 506 344 492 307 494 319 l 611 575 l 689 575 l 813 847 l 735 847 l 792 972 l 492 972 l 435 847 l 390 847 l 267 575 l 311 575 l 221 376 b 150 158 193 315 150 222 z m 361 643 l 428 792 l 444 792 b 488 825 465 792 475 799 l 503 858 l 529 917 l 624 917 b 564 872 611 878 588 882 b 500 775 538 861 528 836 b 432 733 481 733 453 765 b 403 675 422 718 414 696 b 361 643 389 649 382 643 z m 675 758 b 694 792 644 758 654 792 l 728 792 b 675 758 715 775 697 758 z "},"u":{"ha":714,"x_min":0,"x_max":0,"o":"m 211 1 b 110 104 140 1 110 44 b 174 303 110 144 118 181 l 415 833 l 685 833 l 458 336 b 428 251 451 321 428 269 b 465 219 428 236 440 219 b 526 278 496 219 513 244 l 779 833 l 1049 833 l 676 14 l 447 14 l 493 190 l 464 190 b 211 1 381 76 318 1 z m 96 104 b 211 -12 96 40 133 -12 b 471 176 322 -12 389 65 l 475 176 l 429 0 l 685 0 l 1071 847 l 771 847 l 514 283 b 465 233 500 251 488 233 b 442 251 450 233 442 242 b 471 331 442 267 464 315 l 707 847 l 407 847 l 161 308 b 96 104 106 185 96 146 z m 375 643 l 431 761 b 540 792 442 785 457 792 b 622 788 579 792 601 790 b 558 756 614 771 604 765 b 417 676 464 736 457 731 b 375 643 403 658 392 643 z m 753 675 l 794 761 b 904 792 806 785 821 792 b 986 788 943 792 965 790 b 922 756 978 771 968 761 b 797 707 858 749 825 735 b 753 675 781 690 769 675 z "},"ú":{"ha":714,"x_min":0,"x_max":0,"o":"m 211 -12 b 481 203 322 -12 389 65 l 429 0 l 685 0 l 1071 847 l 771 847 l 514 283 b 465 233 500 251 488 233 b 442 251 450 233 442 242 b 471 331 442 267 464 315 l 707 847 l 407 847 l 161 308 b 96 104 106 185 96 146 b 211 -12 96 40 133 -12 z m 717 882 l 779 882 l 908 999 l 799 999 z "},"û":{"ha":714,"x_min":0,"x_max":0,"o":"m 211 -12 b 481 203 322 -12 389 65 l 429 0 l 685 0 l 1071 847 l 771 847 l 514 283 b 465 233 500 251 488 233 b 442 251 450 233 442 242 b 471 331 442 267 464 315 l 707 847 l 407 847 l 161 308 b 96 104 106 185 96 146 b 211 -12 96 40 133 -12 z m 606 889 l 726 889 l 796 969 l 825 889 l 915 889 l 836 1006 l 768 1006 z "},"ü":{"ha":714,"x_min":0,"x_max":0,"o":"m 211 -12 b 481 203 322 -12 389 65 l 429 0 l 685 0 l 1071 847 l 771 847 l 514 283 b 465 233 500 251 488 233 b 442 251 450 233 442 242 b 471 331 442 267 464 315 l 707 847 l 407 847 l 161 308 b 96 104 106 185 96 146 b 211 -12 96 40 133 -12 z m 486 889 l 722 889 l 751 954 l 515 954 z m 778 889 l 1014 889 l 1043 954 l 807 954 z "},"ù":{"ha":714,"x_min":0,"x_max":0,"o":"m 211 -12 b 481 203 322 -12 389 65 l 429 0 l 685 0 l 1071 847 l 771 847 l 514 283 b 465 233 500 251 488 233 b 442 251 450 233 442 242 b 471 331 442 267 464 315 l 707 847 l 407 847 l 161 308 b 96 104 106 185 96 146 b 211 -12 96 40 133 -12 z m 658 1006 l 724 889 l 786 889 l 768 1006 z "},"v":{"ha":611,"x_min":0,"x_max":0,"o":"m 147 14 l 343 833 l 603 833 l 442 361 l 476 361 l 732 833 l 993 833 l 456 14 z m 129 0 l 463 0 l 1019 847 l 724 847 l 468 375 l 461 375 l 622 847 l 332 847 z m 340 643 l 371 761 b 475 794 376 785 392 794 b 544 788 514 794 522 792 b 479 753 539 771 525 763 b 375 676 410 738 403 731 b 340 643 364 658 357 643 z m 693 675 l 742 761 b 850 794 754 783 767 794 b 911 788 876 794 892 792 b 849 756 907 771 896 761 b 740 707 785 749 771 738 b 693 675 725 692 714 675 z "},"w":{"ha":972,"x_min":0,"x_max":0,"o":"m 132 14 l 356 833 l 615 833 l 438 361 l 474 361 l 744 833 l 964 833 l 818 361 l 854 361 l 1093 833 l 1356 833 l 843 14 l 572 14 l 664 383 l 633 383 l 431 14 z m 114 0 l 439 0 l 642 369 l 646 369 l 554 0 l 851 0 l 1381 847 l 1085 847 l 846 375 l 838 375 l 983 847 l 736 847 l 465 375 l 457 375 l 635 847 l 344 847 z m 347 643 l 378 761 b 482 794 383 785 399 794 b 551 788 521 794 529 790 b 486 753 546 771 532 763 b 382 676 417 738 410 731 b 347 643 371 658 364 643 z m 413 282 b 450 306 411 290 428 296 b 503 343 483 322 494 343 b 510 332 508 343 510 339 b 438 268 510 299 488 268 b 413 282 425 268 413 274 z m 717 704 l 750 761 b 846 794 763 783 793 794 b 907 788 885 794 897 790 b 843 756 901 771 890 761 b 744 707 779 749 769 740 b 717 704 718 672 703 679 z m 829 288 b 843 306 829 293 832 299 b 896 343 875 326 888 343 b 903 332 901 343 903 339 b 853 274 903 286 874 272 b 829 288 840 275 831 281 z m 1118 786 b 1217 794 1121 792 1163 796 b 1279 786 1236 794 1281 792 b 1167 757 1272 772 1215 756 b 1118 786 1136 757 1111 765 z "},"ẃ":{"ha":958,"x_min":0,"x_max":0,"o":"m 114 0 l 439 0 l 646 369 l 554 0 l 851 0 l 1381 847 l 1085 847 l 838 375 l 983 847 l 736 847 l 457 375 l 635 847 l 344 847 z m 824 882 l 886 882 l 1015 999 l 906 999 z "},"ŵ":{"ha":958,"x_min":0,"x_max":0,"o":"m 114 0 l 439 0 l 646 369 l 554 0 l 851 0 l 1381 847 l 1085 847 l 838 375 l 983 847 l 736 847 l 457 375 l 635 847 l 344 847 z m 722 889 l 843 889 l 913 969 l 942 889 l 1032 889 l 953 1006 l 885 1006 z "},"ẅ":{"ha":972,"x_min":0,"x_max":0,"o":"m 114 0 l 439 0 l 646 369 l 554 0 l 851 0 l 1381 847 l 1085 847 l 838 375 l 983 847 l 736 847 l 457 375 l 635 847 l 344 847 z m 600 889 l 836 889 l 865 954 l 629 954 z m 892 889 l 1128 889 l 1157 954 l 921 954 z "},"ẁ":{"ha":958,"x_min":0,"x_max":0,"o":"m 114 0 l 439 0 l 646 369 l 554 0 l 851 0 l 1381 847 l 1085 847 l 838 375 l 983 847 l 736 847 l 457 375 l 635 847 l 344 847 z m 776 1006 l 842 889 l 904 889 l 886 1006 z "},"x":{"ha":603,"x_min":0,"x_max":0,"o":"m -29 14 l 307 442 l 339 833 l 599 833 l 528 546 l 557 546 l 707 833 l 994 833 l 665 410 l 639 14 l 379 14 l 450 321 l 422 321 l 257 14 z m -58 0 l 265 0 l 431 307 l 432 307 l 361 0 l 651 0 l 679 404 l 1022 847 l 699 847 l 549 560 l 546 560 l 617 847 l 326 847 l 293 447 z m 367 643 l 376 761 b 475 794 378 785 392 794 b 547 788 514 794 524 790 b 488 753 543 771 531 763 b 396 676 421 738 414 731 b 367 643 389 658 383 643 z m 529 490 b 567 514 528 499 544 504 b 619 551 600 531 611 551 b 626 540 625 551 626 547 b 554 476 626 507 604 476 b 529 490 542 476 529 482 z m 685 704 l 715 761 b 818 794 728 783 761 794 b 901 788 878 794 892 790 b 838 756 896 771 885 761 b 713 707 775 749 736 740 b 685 704 688 672 671 679 z "},"y":{"ha":704,"x_min":0,"x_max":0,"o":"m 354 -94 b 40 -32 210 -94 119 -72 l 133 171 b 346 119 196 139 268 119 b 486 204 417 119 464 154 l 531 300 l 496 300 b 329 196 453 250 403 196 b 243 468 226 196 147 260 l 410 833 l 676 833 l 514 474 b 519 346 476 392 475 346 b 576 404 542 346 558 364 l 772 833 l 1042 833 l 764 221 b 354 -94 663 -1 557 -94 z m 22 -39 b 354 -108 106 -83 201 -108 b 776 215 563 -108 674 -10 l 1064 847 l 764 847 l 564 410 b 519 360 549 376 536 360 b 526 468 488 360 496 401 l 699 847 l 401 847 l 231 474 b 329 182 131 256 221 182 b 503 286 407 182 460 238 l 508 286 l 474 210 b 346 133 453 164 411 133 b 126 190 264 133 190 154 z m 369 643 l 425 761 b 535 792 436 785 451 792 b 617 788 574 792 596 790 b 553 756 608 771 599 765 b 411 676 458 736 451 731 b 369 643 397 658 386 643 z m 401 83 b 439 107 400 92 417 97 b 492 144 472 124 483 144 b 499 133 497 144 499 140 b 426 69 499 100 476 69 b 401 83 414 69 401 75 z m 747 675 l 789 761 b 899 792 800 785 815 792 b 981 788 938 792 960 790 b 917 756 972 771 963 761 b 792 707 853 749 819 735 b 747 675 775 690 764 675 z "},"ý":{"ha":704,"x_min":0,"x_max":0,"o":"m 354 -108 b 776 215 563 -108 674 -10 l 1064 847 l 764 847 l 564 410 b 519 360 547 375 536 360 b 526 468 488 360 496 401 l 699 847 l 401 847 l 231 474 b 329 182 131 256 221 182 b 522 318 410 182 463 231 l 474 210 b 346 133 453 164 411 133 b 126 190 264 133 190 154 l 22 -39 b 354 -108 106 -83 201 -108 z m 711 882 l 774 882 l 903 999 l 793 999 z "},"ŷ":{"ha":704,"x_min":0,"x_max":0,"o":"m 354 -108 b 776 215 563 -108 674 -10 l 1064 847 l 764 847 l 564 410 b 519 360 547 375 536 360 b 526 468 488 360 496 401 l 699 847 l 401 847 l 231 474 b 329 182 131 256 221 182 b 522 318 410 182 463 231 l 474 210 b 346 133 453 164 411 133 b 126 190 264 133 190 154 l 22 -39 b 354 -108 106 -83 201 -108 z m 592 889 l 713 889 l 782 969 l 811 889 l 901 889 l 822 1006 l 754 1006 z "},"ÿ":{"ha":704,"x_min":0,"x_max":0,"o":"m 354 -108 b 776 215 563 -108 674 -10 l 1064 847 l 764 847 l 564 410 b 519 360 547 375 536 360 b 526 468 488 360 496 401 l 699 847 l 401 847 l 231 474 b 329 182 131 256 221 182 b 522 318 410 182 463 231 l 474 210 b 346 133 453 164 411 133 b 126 190 264 133 190 154 l 22 -39 b 354 -108 106 -83 201 -108 z m 481 889 l 717 889 l 746 954 l 510 954 z m 772 889 l 1008 889 l 1038 954 l 801 954 z "},"ỳ":{"ha":704,"x_min":0,"x_max":0,"o":"m 354 -108 b 776 215 563 -108 674 -10 l 1064 847 l 764 847 l 564 410 b 519 360 547 375 536 360 b 526 468 488 360 496 401 l 699 847 l 401 847 l 231 474 b 329 182 131 256 221 182 b 522 318 410 182 463 231 l 474 210 b 346 133 453 164 411 133 b 126 190 264 133 190 154 l 22 -39 b 354 -108 106 -83 201 -108 z m 644 1006 l 710 889 l 772 889 l 754 1006 z "},"z":{"ha":567,"x_min":0,"x_max":0,"o":"m 36 14 l 464 589 l 276 589 l 386 833 l 911 833 l 483 258 l 704 258 l 594 14 z m 8 0 l 603 0 l 726 272 l 511 272 l 939 847 l 378 847 l 254 575 l 436 575 z m 369 643 l 425 761 b 535 792 436 785 451 792 b 617 775 574 792 617 786 b 553 756 617 768 599 765 b 411 676 458 736 451 731 b 369 643 397 658 386 643 z m 476 211 b 575 219 479 217 521 221 b 638 211 594 219 639 217 b 525 182 631 197 574 181 b 476 211 494 182 469 190 z m 642 775 b 696 789 642 779 678 789 b 717 778 711 789 717 785 b 686 758 717 765 706 758 b 642 775 671 758 640 771 z "},"ź":{"ha":567,"x_min":0,"x_max":0,"o":"m 8 0 l 603 0 l 726 272 l 511 272 l 939 847 l 378 847 l 254 575 l 436 575 z m 618 882 l 681 882 l 810 999 l 700 999 z "},"ž":{"ha":567,"x_min":0,"x_max":0,"o":"m 8 0 l 603 0 l 726 272 l 511 272 l 939 847 l 378 847 l 254 575 l 436 575 z m 557 999 l 636 882 l 704 882 l 867 999 l 754 999 l 682 924 l 656 999 z "},"æ":{"ha":1013,"x_min":0,"x_max":0,"o":"m 224 -14 b 515 207 340 -14 436 64 l 522 207 b 768 -14 519 68 604 -14 b 1189 383 1017 -14 1097 146 l 918 383 b 807 201 857 229 828 201 b 789 222 799 201 789 206 b 867 431 790 251 801 294 l 1213 431 b 1292 714 1250 490 1289 621 b 1164 861 1296 821 1261 861 b 990 768 1107 861 1046 828 l 983 768 l 1015 847 l 735 847 l 706 782 l 701 782 b 551 861 647 842 606 861 b 183 456 425 861 331 779 b 224 -14 35 129 61 -14 z m 415 235 b 458 418 382 235 399 285 b 585 613 539 601 565 613 b 525 410 618 613 599 568 b 415 235 458 269 442 235 z m 917 531 b 1015 667 979 653 997 667 b 1031 650 1024 667 1031 661 b 985 531 1031 635 1019 607 z "},"ĳ":{"ha":715,"x_min":0,"x_max":0,"o":"m 43 14 l 415 833 l 685 833 l 379 161 l 313 14 z m 21 0 l 321 0 l 375 119 l 354 -107 l 385 -107 b 743 110 611 -107 686 -14 l 1081 847 l 781 847 l 493 218 b 394 161 474 176 447 164 l 707 847 l 407 847 z m 369 -93 l 392 147 b 506 213 450 149 483 164 l 789 833 l 1058 833 l 731 115 b 385 -93 674 -7 604 -93 z m 375 643 l 431 761 b 540 792 442 785 457 792 b 622 788 579 792 601 790 b 558 756 614 771 604 765 b 417 676 464 736 457 731 b 375 643 403 658 392 643 z m 426 889 l 726 889 l 764 972 l 464 972 z m 438 103 b 475 126 436 111 453 117 b 528 164 508 143 519 164 b 535 153 533 164 535 160 b 463 89 535 119 513 89 b 438 103 450 89 438 94 z m 447 903 l 472 958 l 743 958 l 718 903 z m 500 933 b 575 944 506 943 553 944 b 644 932 619 944 649 942 b 563 918 639 921 607 918 b 500 933 517 918 493 921 z m 749 643 l 804 761 b 914 792 815 785 831 792 b 996 788 953 792 975 790 b 932 756 988 771 978 765 b 790 676 838 736 831 731 b 749 643 776 658 765 643 z m 800 889 l 1100 889 l 1138 972 l 838 972 z m 821 903 l 846 958 l 1117 958 l 1092 903 z m 878 933 b 953 944 883 943 931 944 b 1022 932 997 944 1026 942 b 940 918 1017 921 985 918 b 878 933 894 918 871 921 z "},"œ":{"ha":1063,"x_min":0,"x_max":0,"o":"m 344 -14 b 606 132 451 -14 535 40 b 811 -14 621 47 696 -14 b 1218 383 1018 -14 1115 118 l 947 383 b 836 201 886 229 857 201 b 818 222 828 201 818 206 b 896 431 819 251 831 294 l 1242 431 b 1321 676 1279 490 1318 597 b 1149 861 1325 794 1263 861 b 842 708 1019 861 919 811 b 657 861 846 807 768 861 b 144 231 344 861 158 414 b 344 -14 133 74 204 -14 z m 411 218 b 500 436 414 244 431 303 b 643 638 594 621 626 638 b 654 621 651 638 656 632 b 569 408 654 596 638 535 b 425 201 467 219 440 201 b 411 218 418 201 411 206 z m 946 531 b 1044 667 1008 653 1026 667 b 1060 650 1053 667 1060 661 b 1014 531 1060 635 1049 607 z "},"$":{"ha":621,"x_min":0,"x_max":0,"o":"m 261 4 l 231 -64 l 314 -64 l 343 1 l 347 1 b 753 361 582 1 753 136 b 635 586 753 471 700 538 b 583 650 601 611 583 628 b 650 694 583 676 601 694 b 856 628 715 694 814 658 l 983 908 b 771 969 943 938 854 963 l 806 1047 l 722 1047 l 689 972 l 682 972 b 290 614 456 972 290 824 b 385 419 290 532 336 458 b 457 329 429 385 457 357 b 390 285 457 301 439 285 b 171 342 308 285 235 306 l 42 57 b 261 4 107 22 183 7 z "},"¢":{"ha":668,"x_min":0,"x_max":0,"o":"m 306 -10 l 269 -89 l 353 -89 l 386 -14 b 818 386 617 -14 733 161 l 554 386 b 431 201 471 221 449 201 b 415 222 424 201 415 207 b 496 436 417 249 433 310 b 626 631 571 586 606 631 b 640 611 638 631 642 624 b 579 439 640 588 632 550 l 840 439 b 913 661 879 506 910 585 b 721 858 917 774 857 843 l 756 936 l 672 936 l 639 861 b 235 536 451 853 340 742 b 122 192 161 399 125 264 b 306 -10 118 61 192 6 z "},"£":{"ha":665,"x_min":0,"x_max":0,"o":"m 125 272 l 1 0 l 653 0 l 776 272 l 490 272 l 561 429 l 689 429 l 749 560 l 619 560 l 672 678 b 743 718 685 704 708 718 b 886 685 789 718 839 707 l 1007 946 b 783 986 942 969 853 986 b 421 776 596 986 486 924 l 324 558 l 233 558 l 174 428 l 265 428 l 217 319 b 125 272 200 282 181 272 z "},"¥":{"ha":721,"x_min":0,"x_max":0,"o":"m 192 0 l 492 0 l 586 208 l 694 344 l 814 344 l 847 421 l 754 421 l 778 451 l 863 451 l 896 528 l 836 526 l 1186 972 l 872 972 l 586 531 l 697 972 l 388 972 l 336 531 l 288 531 l 251 454 l 326 454 l 322 424 l 239 424 l 203 347 l 314 347 l 301 240 z "},"€":{"ha":769,"x_min":0,"x_max":0,"o":"m 468 -14 b 938 443 694 -14 829 139 l 626 443 b 500 233 568 299 528 233 b 481 254 488 233 481 240 b 528 404 481 282 492 319 l 576 404 l 610 481 l 560 481 l 572 511 l 625 511 l 658 588 l 607 588 b 714 736 667 718 697 736 b 731 717 724 736 731 729 b 650 496 731 689 711 632 l 961 496 b 1032 746 999 561 1032 658 b 749 986 1032 893 925 986 b 297 615 528 986 418 856 l 283 588 l 235 588 l 201 511 l 251 511 l 239 481 l 186 481 l 153 404 l 213 404 b 182 225 197 354 182 276 b 468 -14 182 72 294 -14 z "},"_":{"ha":628,"x_min":0,"x_max":0,"o":"m -89 -260 l 504 -260 l 622 0 l 29 0 z "},"-":{"ha":390,"x_min":0,"x_max":0,"o":"m 179 340 l 519 340 l 647 624 l 307 624 z "},"–":{"ha":690,"x_min":0,"x_max":0,"o":"m 168 340 l 824 340 l 951 624 l 296 624 z "},"—":{"ha":886,"x_min":0,"x_max":0,"o":"m 179 340 l 1015 340 l 1143 624 l 307 624 z "},"(":{"ha":422,"x_min":0,"x_max":0,"o":"m 139 -140 l 393 -112 b 525 456 400 88 456 286 b 863 1021 632 725 765 924 l 594 1060 b 254 478 449 896 333 696 b 139 -140 176 268 131 28 z "},")":{"ha":449,"x_min":0,"x_max":0,"o":"m -6 -103 l 263 -142 b 603 440 408 22 524 222 b 718 1058 681 650 726 890 l 464 1031 b 332 463 457 831 401 632 b -6 -103 225 193 92 -6 z "},"{":{"ha":561,"x_min":0,"x_max":0,"o":"m 289 -112 l 497 -112 l 617 150 l 453 150 b 599 396 514 235 599 344 b 514 469 599 431 582 460 b 663 604 622 481 663 526 b 660 758 663 633 663 696 l 892 758 l 1011 1021 l 704 1021 b 433 804 515 1021 433 956 b 432 640 433 750 432 674 b 371 585 432 601 419 585 l 296 585 l 200 375 l 271 375 b 319 346 304 375 319 367 b 124 4 319 283 135 149 b 289 -112 118 -79 160 -112 z "},"}":{"ha":544,"x_min":0,"x_max":0,"o":"m -35 -112 l 271 -112 b 542 104 460 -112 542 -47 b 543 268 542 158 543 235 b 604 324 543 307 556 324 l 679 324 l 775 533 l 704 533 b 656 563 671 533 656 542 b 851 904 656 625 840 760 b 676 1021 857 988 804 1021 l 478 1021 l 358 758 l 522 758 b 376 513 461 674 376 564 b 461 439 376 478 393 449 b 313 304 353 428 313 382 b 315 150 313 275 311 213 l 85 150 z "},"[":{"ha":511,"x_min":0,"x_max":0,"o":"m -47 -112 l 426 -112 l 546 150 l 358 150 l 633 758 l 821 758 l 940 1021 l 467 1021 z "},"]":{"ha":528,"x_min":0,"x_max":0,"o":"m -24 -112 l 450 -112 l 964 1021 l 490 1021 l 371 758 l 558 758 l 283 150 l 96 150 z "},"#":{"ha":892,"x_min":0,"x_max":0,"o":"m 136 0 l 381 0 l 479 214 l 563 214 l 465 0 l 710 0 l 806 214 l 968 214 l 1064 454 l 919 454 l 954 529 l 1093 529 l 1186 757 l 1054 757 l 1154 972 l 910 972 l 813 757 l 728 757 l 825 972 l 581 972 l 485 757 l 340 757 l 247 529 l 385 529 l 351 454 l 218 454 l 122 214 l 238 214 z m 585 454 l 618 529 l 707 529 l 674 454 z "},"'":{"ha":186,"x_min":0,"x_max":0,"o":"m 268 592 l 353 592 l 617 972 l 501 972 z m 472 839 b 519 915 446 839 490 915 b 472 839 547 915 493 839 z "},"‘":{"ha":224,"x_min":0,"x_max":0,"o":"m 292 592 l 407 592 l 640 972 l 556 972 z "},"’":{"ha":224,"x_min":0,"x_max":0,"o":"m 292 592 l 376 592 l 640 972 l 525 972 z m 515 869 b 540 915 490 869 522 915 b 515 869 569 915 538 869 z "},".":{"ha":379,"x_min":0,"x_max":0,"o":"m 36 0 l 360 0 l 503 315 l 179 315 z m 217 251 b 307 260 218 257 281 260 b 410 251 360 260 413 257 b 292 224 404 236 365 224 b 217 251 246 224 210 231 z "},"…":{"ha":365,"x_min":0,"x_max":0,"o":"m 36 0 l 360 0 l 503 315 l 179 315 z m 217 251 b 307 260 218 257 281 260 b 410 251 360 260 413 257 b 292 224 404 236 365 224 b 217 251 246 224 210 231 z "},"ı":{"ha":342,"x_min":0,"x_max":0,"o":"m 21 0 l 321 0 l 707 847 l 407 847 z "},",":{"ha":367,"x_min":0,"x_max":0,"o":"m -7 -96 l 228 -96 l 532 315 l 179 315 z "},":":{"ha":385,"x_min":0,"x_max":0,"o":"m 222 446 l 546 446 l 689 761 l 365 761 z m 21 0 l 344 0 l 488 315 l 164 315 z "},";":{"ha":365,"x_min":0,"x_max":0,"o":"m -22 -96 l 213 -96 l 517 315 l 164 315 z m 222 446 l 546 446 l 689 761 l 365 761 z "},"!":{"ha":353,"x_min":0,"x_max":0,"o":"m 163 303 l 463 303 l 768 972 l 468 972 z m 14 0 l 338 0 l 460 272 l 136 272 z "},"¡":{"ha":351,"x_min":0,"x_max":0,"o":"m 25 0 l 325 0 l 631 669 l 331 669 z m 332 700 l 656 700 l 779 972 l 456 972 z "},"“":{"ha":338,"x_min":0,"x_max":0,"o":"m 417 592 l 532 592 l 765 972 l 681 972 z m 278 592 l 393 592 l 626 972 l 542 972 z "},"”":{"ha":315,"x_min":0,"x_max":0,"o":"m 410 592 l 494 592 l 758 972 l 643 972 z m 271 592 l 356 592 l 619 972 l 504 972 z "},"?":{"ha":651,"x_min":0,"x_max":0,"o":"m 340 335 l 326 303 l 601 303 l 614 331 b 750 450 643 396 661 407 b 957 779 875 510 957 633 b 713 986 957 925 833 986 b 339 736 526 986 399 903 b 304 632 336 729 307 640 l 568 632 b 649 736 583 685 613 736 b 674 708 667 736 674 725 b 543 567 674 665 654 613 b 340 335 440 524 401 476 z m 172 0 l 496 0 l 618 272 l 294 272 z "},"¿":{"ha":665,"x_min":0,"x_max":0,"o":"m 390 -17 b 764 233 576 -17 704 67 b 799 338 767 240 796 329 l 535 338 b 454 233 519 285 490 233 b 429 261 436 233 429 244 b 560 403 429 304 449 357 b 763 635 663 446 701 493 l 776 667 l 501 667 l 489 639 b 353 519 460 574 442 563 b 146 190 228 460 146 336 b 390 -17 146 44 269 -17 z m 488 697 l 811 697 l 935 969 l 611 969 z "},"/":{"ha":379,"x_min":0,"x_max":0,"o":"m -50 -114 l 236 -114 l 868 1019 l 582 1019 z "},"\\":{"ha":415,"x_min":0,"x_max":0,"o":"m 111 -114 l 372 -114 l 728 1019 l 467 1019 z "},"|":{"ha":365,"x_min":0,"x_max":0,"o":"m -19 -114 l 253 -114 l 767 1019 l 494 1019 z "},"&":{"ha":714,"x_min":0,"x_max":0,"o":"m 306 1 b 111 151 179 1 108 61 b 361 511 115 293 219 436 b 342 614 350 549 342 579 b 722 972 346 826 501 972 b 1006 903 849 972 953 936 l 896 661 b 689 731 853 689 781 731 b 574 597 614 731 576 668 b 617 414 571 528 588 458 b 692 585 649 464 671 524 l 928 585 b 758 290 889 486 828 383 b 836 257 785 275 804 265 l 725 14 b 554 86 668 17 599 42 b 306 1 476 33 394 1 z m 97 151 b 306 -12 94 54 174 -12 b 553 68 393 -12 476 18 b 733 0 601 25 676 0 l 856 267 b 779 294 821 275 801 282 b 947 599 849 390 911 497 l 682 599 b 617 442 663 543 643 489 b 588 597 596 483 585 539 b 689 717 590 663 624 717 b 901 640 788 717 861 668 l 1024 907 b 722 986 972 944 858 986 b 328 614 496 986 332 832 b 344 518 328 581 335 551 b 97 151 206 440 101 294 z m 260 376 b 360 454 278 399 339 454 b 260 376 390 454 321 376 z m 357 238 b 383 211 357 221 367 211 b 460 233 413 211 444 228 b 411 342 443 264 428 299 b 357 238 383 313 357 272 z m 371 238 b 407 315 371 263 386 290 b 440 240 418 288 429 263 b 383 225 424 233 403 225 b 371 238 375 225 371 229 z m 386 650 b 703 929 386 801 518 931 b 733 911 721 929 733 925 b 631 867 733 897 717 888 b 418 690 506 836 444 783 b 392 638 410 661 403 638 b 386 650 388 638 386 646 z m 404 165 b 443 183 404 174 419 176 b 494 206 483 196 486 206 b 501 193 500 206 501 200 b 442 147 501 164 474 147 b 404 165 431 147 404 151 z m 642 365 b 710 507 642 379 671 406 b 743 543 721 536 731 543 b 757 526 750 543 757 540 b 686 386 757 494 722 421 b 647 360 667 368 656 360 b 642 365 644 360 642 361 z "},"•":{"ha":457,"x_min":0,"x_max":0,"o":"m 364 286 b 585 546 469 286 579 426 b 471 665 589 628 533 665 b 249 406 364 665 256 526 b 364 286 246 328 292 286 z "},"·":{"ha":464,"x_min":0,"x_max":0,"o":"m 236 331 l 560 331 l 703 646 l 379 646 z "},"´":{"ha":396,"x_min":0,"x_max":0,"o":"m 664 996 l 726 996 l 856 1113 l 746 1113 z "},"ˇ":{"ha":283,"x_min":0,"x_max":0,"o":"m 522 882 l 590 882 l 739 1015 l 626 1015 l 563 928 l 528 1015 l 429 1015 z "},"←":{"ha":408,"x_min":0,"x_max":0,"o":"m 332 181 l 406 181 l 406 296 l 514 293 l 683 669 l 546 669 l 608 772 l 528 774 l 239 510 z "},"→":{"ha":421,"x_min":0,"x_max":0,"o":"m 224 179 l 313 179 l 621 482 l 543 771 l 482 771 l 456 681 l 340 683 l 171 307 l 286 307 z "}}}
